# Blender v2.79 (sub 0) OBJ File: ''
# www.blender.org
mtllib BackboneChain.mtl
o Backbone_Chain_Cylinder.002
v -2.000000 -0.000000 -1.000000
v 2.000000 0.000000 -1.000000
v -2.000000 -0.195090 -0.980785
v 2.000000 -0.195090 -0.980785
v -2.000000 -0.382684 -0.923880
v 2.000000 -0.382683 -0.923880
v -2.000000 -0.555570 -0.831470
v 2.000000 -0.555570 -0.831470
v -2.000000 -0.707107 -0.707107
v 2.000000 -0.707107 -0.707107
v -2.000000 -0.831470 -0.555570
v 2.000000 -0.831469 -0.555570
v -2.000000 -0.923880 -0.382683
v 2.000000 -0.923879 -0.382683
v -2.000000 -0.980785 -0.195090
v 2.000000 -0.980785 -0.195090
v -2.000000 -1.000000 -0.000000
v 2.000000 -1.000000 -0.000000
v -2.000000 -0.980785 0.195090
v 2.000000 -0.980785 0.195090
v -2.000000 -0.923880 0.382683
v 2.000000 -0.923879 0.382683
v -2.000000 -0.831470 0.555570
v 2.000000 -0.831469 0.555570
v -2.000000 -0.707107 0.707107
v 2.000000 -0.707107 0.707107
v -2.000000 -0.555570 0.831470
v 2.000000 -0.555570 0.831470
v -2.000000 -0.382683 0.923880
v 2.000000 -0.382683 0.923880
v -2.000000 -0.195090 0.980785
v 2.000000 -0.195090 0.980785
v -2.000000 0.000000 1.000000
v 2.000000 0.000000 1.000000
v -2.000000 0.195091 0.980785
v 2.000000 0.195091 0.980785
v -2.000000 0.382684 0.923879
v 2.000000 0.382684 0.923879
v -2.000000 0.555571 0.831469
v 2.000000 0.555571 0.831469
v -2.000000 0.707107 0.707106
v 2.000000 0.707107 0.707106
v -2.000000 0.831470 0.555570
v 2.000000 0.831470 0.555570
v -2.000000 0.923880 0.382683
v 2.000000 0.923880 0.382683
v -2.000000 0.980785 0.195089
v 2.000000 0.980786 0.195089
v -2.000000 1.000000 -0.000001
v 2.000000 1.000000 -0.000001
v -2.000000 0.980785 -0.195091
v 2.000000 0.980785 -0.195091
v -2.000000 0.923879 -0.382684
v 2.000000 0.923879 -0.382684
v -2.000000 0.831469 -0.555571
v 2.000000 0.831469 -0.555571
v -2.000000 0.707106 -0.707108
v 2.000000 0.707106 -0.707108
v -2.000000 0.555569 -0.831470
v 2.000000 0.555569 -0.831470
v -2.000000 0.382682 -0.923880
v 2.000000 0.382682 -0.923880
v -2.000000 0.195089 -0.980786
v 2.000000 0.195089 -0.980786
v -0.923879 0.923879 -0.382684
v -0.923879 -0.923880 -0.382684
v -0.980785 0.980785 -0.195091
v -0.980785 -0.980785 -0.195091
v -0.980785 -0.980785 0.195089
v -0.980785 0.980785 0.195089
v -0.831470 0.831470 0.555570
v -0.831470 -0.831470 0.555570
v -0.923880 -0.923880 0.382683
v -0.923880 0.923880 0.382683
v -0.831469 0.831469 -0.555571
v -0.831469 -0.831470 -0.555571
v -1.000000 1.000000 -0.000001
v -1.000000 -1.000000 -0.000001
v 0.980785 -0.980785 0.195090
v 0.980785 0.980785 0.195090
v 0.923880 -0.923880 0.382683
v 0.923880 0.923880 0.382683
v 1.000000 1.000000 -0.000000
v 1.000000 -1.000000 -0.000000
v 0.831470 0.831470 0.555570
v 0.831470 -0.831470 0.555570
v 0.382683 -0.382683 0.923880
v 0.382683 0.382684 0.923880
v 0.195090 -0.195090 0.980785
v 0.195090 0.195091 0.980785
v 0.555570 -0.555570 0.831470
v 0.555570 0.555571 0.831470
v -0.555569 0.555569 -0.831470
v -0.555569 -0.555570 -0.831470
v -0.555571 -0.555570 0.831469
v -0.555571 0.555571 0.831469
v -0.382684 -0.382683 0.923879
v -0.382684 0.382684 0.923879
v -0.382682 -0.382684 -0.923880
v -0.382682 0.382682 -0.923880
v -0.707106 -0.707107 -0.707108
v -0.707106 0.707106 -0.707108
v 0.555570 0.555569 -0.831470
v 0.555570 -0.555570 -0.831470
v 0.382683 -0.382683 -0.923880
v 0.382683 0.382682 -0.923880
v 0.000000 0.000000 -1.000000
v -0.000000 0.000000 1.000000
v 0.707107 -0.707107 -0.707107
v 0.707107 0.707106 -0.707107
v -0.195089 -0.195090 -0.980786
v -0.195089 0.195089 -0.980786
v 0.980785 0.980785 -0.195090
v 0.980785 -0.980785 -0.195090
v 0.195090 -0.195090 -0.980785
v 0.195090 0.195089 -0.980785
v 0.707107 -0.707107 0.707107
v 0.707107 0.707107 0.707107
v 0.923880 0.923879 -0.382683
v 0.923880 -0.923879 -0.382683
v -0.707107 -0.707107 0.707106
v -0.707107 0.707107 0.707106
v 0.831470 0.831469 -0.555570
v 0.831470 -0.831470 -0.555570
v -0.195091 -0.195090 0.980785
v -0.195091 0.195091 0.980785
v 0.000000 -2.000000 -1.000000
v -0.000000 2.000000 -1.000000
v 0.195091 -2.000000 -0.980785
v 0.195090 2.000000 -0.980785
v 0.382684 -2.000000 -0.923880
v 0.382683 2.000000 -0.923880
v 0.555570 -2.000000 -0.831470
v 0.555570 2.000000 -0.831470
v 0.707107 -2.000000 -0.707107
v 0.707107 2.000000 -0.707107
v 0.831470 -2.000000 -0.555570
v 0.831469 2.000000 -0.555570
v 0.923880 -2.000000 -0.382683
v 0.923879 2.000000 -0.382683
v 0.980785 -2.000000 -0.195090
v 0.980785 2.000000 -0.195090
v 1.000000 -2.000000 -0.000000
v 1.000000 2.000000 -0.000000
v 0.980786 -2.000000 0.195090
v 0.980785 2.000000 0.195090
v 0.923880 -2.000000 0.382683
v 0.923879 2.000000 0.382683
v 0.831470 -2.000000 0.555570
v 0.831469 2.000000 0.555570
v 0.707107 -2.000000 0.707107
v 0.707107 2.000000 0.707107
v 0.555570 -2.000000 0.831470
v 0.555570 2.000000 0.831470
v 0.382684 -2.000000 0.923880
v 0.382683 2.000000 0.923880
v 0.195090 -2.000000 0.980785
v 0.195090 2.000000 0.980785
v -0.000000 -2.000000 1.000000
v -0.000001 2.000000 1.000000
v -0.195090 -2.000000 0.980785
v -0.195091 2.000000 0.980785
v -0.382684 -2.000000 0.923879
v -0.382684 2.000000 0.923879
v -0.555570 -2.000000 0.831469
v -0.555571 2.000000 0.831469
v -0.707107 -2.000000 0.707106
v -0.707107 2.000000 0.707106
v -0.831470 -2.000000 0.555570
v -0.831470 2.000000 0.555570
v -0.923880 -2.000000 0.382683
v -0.923880 2.000000 0.382683
v -0.980785 -2.000000 0.195089
v -0.980786 2.000000 0.195089
v -1.000000 -2.000000 -0.000001
v -1.000000 2.000000 -0.000001
v -0.980785 -2.000000 -0.195091
v -0.980785 2.000000 -0.195091
v -0.923879 -2.000000 -0.382684
v -0.923879 2.000000 -0.382684
v -0.831469 -2.000000 -0.555571
v -0.831469 2.000000 -0.555571
v -0.707106 -2.000000 -0.707108
v -0.707106 2.000000 -0.707108
v -0.555569 -2.000000 -0.831470
v -0.555569 2.000000 -0.831470
v -0.382682 -2.000000 -0.923880
v -0.382682 2.000000 -0.923880
v -0.195089 -2.000000 -0.980786
v -0.195089 2.000000 -0.980786
v -0.923879 -0.923879 -0.382684
v 0.923880 -0.923879 -0.382684
v -0.980785 -0.980785 -0.195091
v 0.980785 -0.980785 -0.195091
v 0.980785 -0.980785 0.195089
v -0.980785 -0.980785 0.195089
v -0.831470 -0.831470 0.555570
v 0.831470 -0.831470 0.555570
v 0.923880 -0.923880 0.382683
v -0.923880 -0.923880 0.382683
v -0.831469 -0.831469 -0.555571
v 0.831470 -0.831469 -0.555571
v -1.000000 -1.000000 -0.000001
v 1.000000 -1.000000 -0.000001
v 0.980785 0.980785 0.195090
v -0.980785 0.980785 0.195090
v 0.923880 0.923880 0.382683
v -0.923880 0.923880 0.382683
v -1.000000 1.000000 -0.000000
v 1.000000 1.000000 -0.000000
v -0.831470 0.831470 0.555570
v 0.831470 0.831470 0.555570
v 0.382683 0.382683 0.923880
v -0.382684 0.382683 0.923880
v 0.195090 0.195090 0.980785
v -0.195091 0.195090 0.980785
v 0.555570 0.555570 0.831470
v -0.555571 0.555570 0.831470
v -0.555569 -0.555569 -0.831470
v 0.555570 -0.555569 -0.831470
v 0.555570 -0.555571 0.831469
v -0.555571 -0.555571 0.831469
v 0.382683 -0.382684 0.923879
v -0.382684 -0.382684 0.923879
v 0.382684 -0.382682 -0.923880
v -0.382682 -0.382682 -0.923880
v 0.707107 -0.707106 -0.707108
v -0.707106 -0.707106 -0.707108
v -0.555569 0.555570 -0.831470
v 0.555570 0.555570 -0.831470
v 0.382683 0.382683 -0.923880
v -0.382682 0.382683 -0.923880
v 0.000000 0.000000 -1.000000
v -0.000000 -0.000000 1.000000
v 0.707107 0.707107 -0.707107
v -0.707106 0.707107 -0.707107
v 0.195090 -0.195089 -0.980786
v -0.195089 -0.195089 -0.980786
v -0.980785 0.980785 -0.195090
v 0.980785 0.980785 -0.195090
v 0.195090 0.195090 -0.980785
v -0.195089 0.195090 -0.980785
v 0.707107 0.707107 0.707107
v -0.707107 0.707107 0.707107
v -0.923879 0.923879 -0.382683
v 0.923879 0.923880 -0.382683
v 0.707107 -0.707107 0.707106
v -0.707107 -0.707107 0.707106
v -0.831469 0.831470 -0.555570
v 0.831470 0.831470 -0.555570
v 0.195090 -0.195091 0.980785
v -0.195091 -0.195091 0.980785
vn -0.0000 -0.0980 -0.9952
vn -0.0000 -0.2903 -0.9569
vn -0.0000 -0.4714 -0.8819
vn -0.0000 -0.6344 -0.7730
vn -0.0000 -0.7730 -0.6344
vn -0.0000 -0.8819 -0.4714
vn -0.0000 -0.9569 -0.2903
vn -0.0000 -0.9952 -0.0980
vn 0.0000 -0.9952 0.0980
vn 0.0000 -0.9569 0.2903
vn 0.0000 -0.8819 0.4714
vn 0.0000 -0.7730 0.6344
vn 0.0000 -0.6344 0.7730
vn 0.0000 -0.4714 0.8819
vn 0.0000 -0.2903 0.9569
vn 0.0000 -0.0980 0.9952
vn -0.0000 0.0980 0.9952
vn -0.0000 0.2903 0.9569
vn 0.0000 0.4714 0.8819
vn -0.0000 0.6344 0.7730
vn -0.0000 0.7730 0.6344
vn -0.0000 0.8819 0.4714
vn -0.0000 0.9569 0.2903
vn -0.0000 0.9952 0.0980
vn -0.0000 0.9952 -0.0980
vn -0.0000 0.9569 -0.2903
vn -0.0000 0.8819 -0.4714
vn -0.0000 0.7730 -0.6344
vn -0.0000 0.6344 -0.7730
vn -0.0000 0.4714 -0.8819
vn -0.0000 0.2903 -0.9569
vn -0.0000 0.0980 -0.9952
vn 0.0980 -0.0000 -0.9952
vn 0.2903 -0.0000 -0.9569
vn 0.4714 -0.0000 -0.8819
vn 0.6344 -0.0000 -0.7730
vn 0.7730 -0.0000 -0.6344
vn 0.8819 -0.0000 -0.4714
vn 0.9569 -0.0000 -0.2903
vn 0.9952 0.0000 -0.0980
vn 0.9952 0.0000 0.0980
vn 0.9569 0.0000 0.2903
vn 0.8819 0.0000 0.4714
vn 0.7730 0.0000 0.6344
vn 0.6344 0.0000 0.7730
vn 0.4714 0.0000 0.8819
vn 0.2903 0.0000 0.9569
vn 0.0980 0.0000 0.9952
vn -0.0980 -0.0000 0.9952
vn -0.2903 -0.0000 0.9569
vn -0.4714 -0.0000 0.8819
vn -0.6344 -0.0000 0.7730
vn -0.7730 -0.0000 0.6344
vn -0.8819 -0.0000 0.4714
vn -0.9569 -0.0000 0.2903
vn -0.9952 -0.0000 0.0980
vn -0.9952 -0.0000 -0.0980
vn -0.9569 -0.0000 -0.2903
vn -0.8819 -0.0000 -0.4714
vn -0.7730 -0.0000 -0.6344
vn -0.6344 -0.0000 -0.7730
vn -0.4714 -0.0000 -0.8819
vn -0.2903 -0.0000 -0.9569
vn -0.0980 -0.0000 -0.9952
usemtl None
s off
f 1//1 107//1 111//1 3//1
f 3//2 111//2 99//2 5//2
f 5//3 99//3 94//3 7//3
f 7//4 94//4 101//4 9//4
f 9//5 101//5 76//5 11//5
f 11//6 76//6 66//6 13//6
f 13//7 66//7 68//7 15//7
f 15//8 68//8 78//8 17//8
f 17//9 78//9 69//9 19//9
f 19//10 69//10 73//10 21//10
f 21//11 73//11 72//11 23//11
f 23//12 72//12 121//12 25//12
f 25//13 121//13 95//13 27//13
f 27//14 95//14 97//14 29//14
f 29//15 97//15 125//15 31//15
f 31//16 125//16 108//16 33//16
f 33//17 108//17 126//17 35//17
f 35//18 126//18 98//18 37//18
f 37//19 98//19 96//19 39//19
f 39//20 96//20 122//20 41//20
f 41//21 122//21 71//21 43//21
f 43//22 71//22 74//22 45//22
f 45//23 74//23 70//23 47//23
f 47//24 70//24 77//24 49//24
f 49//25 77//25 67//25 51//25
f 51//26 67//26 65//26 53//26
f 53//27 65//27 75//27 55//27
f 55//28 75//28 102//28 57//28
f 57//29 102//29 93//29 59//29
f 59//30 93//30 100//30 61//30
f 61//31 100//31 112//31 63//31
f 63//32 112//32 107//32 1//32
f 114//7 120//7 14//7 16//7
f 109//4 104//4 8//4 10//4
f 91//13 117//13 26//13 28//13
f 119//26 113//26 52//26 54//26
f 115//1 107//1 2//1 4//1
f 89//15 87//15 30//15 32//15
f 92//19 88//19 38//19 40//19
f 117//12 86//12 24//12 26//12
f 83//24 80//24 48//24 50//24
f 106//30 103//30 60//30 62//30
f 84//8 114//8 16//8 18//8
f 108//16 89//16 32//16 34//16
f 82//22 85//22 44//22 46//22
f 81//10 79//10 20//10 22//10
f 116//31 106//31 62//31 64//31
f 85//21 118//21 42//21 44//21
f 104//3 105//3 6//3 8//3
f 86//11 81//11 22//11 24//11
f 113//25 83//25 50//25 52//25
f 123//27 119//27 54//27 56//27
f 118//20 92//20 40//20 42//20
f 105//2 115//2 4//2 6//2
f 110//28 123//28 56//28 58//28
f 107//32 116//32 64//32 2//32
f 90//17 108//17 34//17 36//17
f 124//5 109//5 10//5 12//5
f 103//29 110//29 58//29 60//29
f 120//6 124//6 12//6 14//6
f 79//9 84//9 18//9 20//9
f 87//14 91//14 28//14 30//14
f 88//18 90//18 36//18 38//18
f 80//23 82//23 46//23 48//23
f 127//33 233//33 237//33 129//33
f 129//34 237//34 225//34 131//34
f 131//35 225//35 220//35 133//35
f 133//36 220//36 227//36 135//36
f 135//37 227//37 202//37 137//37
f 137//38 202//38 192//38 139//38
f 139//39 192//39 194//39 141//39
f 141//40 194//40 204//40 143//40
f 143//41 204//41 195//41 145//41
f 145//42 195//42 199//42 147//42
f 147//43 199//43 198//43 149//43
f 149//44 198//44 247//44 151//44
f 151//45 247//45 221//45 153//45
f 153//46 221//46 223//46 155//46
f 155//47 223//47 251//47 157//47
f 157//48 251//48 234//48 159//48
f 159//49 234//49 252//49 161//49
f 161//50 252//50 224//50 163//50
f 163//51 224//51 222//51 165//51
f 165//52 222//52 248//52 167//52
f 167//53 248//53 197//53 169//53
f 169//54 197//54 200//54 171//54
f 171//55 200//55 196//55 173//55
f 173//56 196//56 203//56 175//56
f 175//57 203//57 193//57 177//57
f 177//58 193//58 191//58 179//58
f 179//59 191//59 201//59 181//59
f 181//60 201//60 228//60 183//60
f 183//61 228//61 219//61 185//61
f 185//62 219//62 226//62 187//62
f 187//63 226//63 238//63 189//63
f 189//64 238//64 233//64 127//64
f 240//39 246//39 140//39 142//39
f 235//36 230//36 134//36 136//36
f 217//45 243//45 152//45 154//45
f 245//58 239//58 178//58 180//58
f 241//33 233//33 128//33 130//33
f 215//47 213//47 156//47 158//47
f 218//51 214//51 164//51 166//51
f 243//44 212//44 150//44 152//44
f 209//56 206//56 174//56 176//56
f 232//62 229//62 186//62 188//62
f 210//40 240//40 142//40 144//40
f 234//48 215//48 158//48 160//48
f 208//54 211//54 170//54 172//54
f 207//42 205//42 146//42 148//42
f 242//63 232//63 188//63 190//63
f 211//53 244//53 168//53 170//53
f 230//35 231//35 132//35 134//35
f 212//43 207//43 148//43 150//43
f 239//57 209//57 176//57 178//57
f 249//59 245//59 180//59 182//59
f 244//52 218//52 166//52 168//52
f 231//34 241//34 130//34 132//34
f 236//60 249//60 182//60 184//60
f 233//64 242//64 190//64 128//64
f 216//49 234//49 160//49 162//49
f 250//37 235//37 136//37 138//37
f 229//61 236//61 184//61 186//61
f 246//38 250//38 138//38 140//38
f 205//41 210//41 144//41 146//41
f 213//46 217//46 154//46 156//46
f 214//50 216//50 162//50 164//50
f 206//55 208//55 172//55 174//55
