# Exported from ProBuilder
# http://www.procore3d.com/probuilder
# 6/15/2019 5:10:45 PM

mtllib ./SideHousingWalls.mtl
o SideHousingWalls

g SideHousingWalls
v -12.16497 10.34902 -0.8628521
v -12.16497 10.34902 -10.18653
v -12.70982 10.21028 -0.8628521
v -12.70982 10.21028 -10.18653
v -13.07295 9.894142 -0.8628521
v -13.07296 9.894142 -10.18653
v -13.28318 9.537331 -0.8628521
v -13.28319 9.537331 -10.18653
v -13.31224 9.256893 -0.8628521
v -13.31224 9.256893 -10.18653
v -13.33161 9.049088 -0.8628521
v -13.33161 9.049088 -10.18653
v -13.33161 8.841284 -0.8628521
v -13.33161 8.841284 -10.18653
v -13.33161 8.265465 -0.8628521
v -13.33161 8.265465 -10.18653
v -13.47204 8.231981 -0.8628521
v -13.47204 8.231981 -10.18653
v -13.48313 8.033844 -0.8628521
v -13.48313 8.033844 -10.18653
v -13.73001 7.868447 -0.8628521
v -13.73001 7.868447 -10.18653
v -13.73001 7.868447 -0.8628521
v -13.73001 7.868447 -10.18653
v -13.762 7.932578 -0.8628521
v -13.762 7.932578 -10.18653
v -14.34787 7.47551 -0.8628521
v -14.34787 7.47551 -10.18653
v -14.37676 7.209927 -0.8628521
v -14.37676 7.209927 -10.18653
v -14.4593 7.163071 -0.8628521
v -14.4593 7.163071 -10.18653
v -14.47169 4.590576 -0.8628521
v -14.47169 4.590576 -10.18653
v -14.36386 4.562811 -0.8628521
v -14.36386 4.56281 -10.18653
v -14.32526 4.195083 -0.8628521
v -14.32526 4.195083 -10.18653
v -14.25909 3.932133 -0.8628521
v -14.25909 3.932133 -10.18653
v -13.9613 3.536831 -0.8628521
v -13.9613 3.536831 -10.18653
v -13.66352 3.174619 -0.8628521
v -13.66352 3.174619 -10.18653
v -13.52014 3.077104 -0.8628521
v -13.52014 3.077104 -10.18653
v -13.48501 2.861835 -0.8628521
v -13.48501 2.861835 -10.18653
v -13.34919 2.821193 -0.8628521
v -13.34919 2.821193 -10.18653
v -13.34919 2.821193 -0.8628521
v -13.34919 2.821193 -10.18653
v -13.24471 2.827567 -0.8628521
v -13.24471 2.827567 -10.18653
v -13.24471 2.827567 -0.8628521
v -13.24471 2.827567 -10.18653
v -13.19769 2.186181 -0.8628521
v -13.1977 2.186181 -10.18653
v -13.16113 1.565691 -0.8628521
v -13.16113 1.56569 -10.18653
v -13.09824 1.277934 -0.8628521
v -13.09824 1.277933 -10.18653
v -12.88636 1.037529 -0.8628521
v -12.88636 1.037529 -10.18653
v -12.60928 0.8745451 -0.8628521
v -12.60929 0.8745446 -10.18653
v -12.31184 0.7645283 -0.8628521
v -12.31184 0.7645278 -10.18653
v -12.06736 0.7360067 -0.8628521
v -12.06736 0.7360067 -10.18653
v -12.06736 0.7360067 -0.8628521
v -12.06736 0.7360067 -10.18653
v -11.91253 0.7319317 -0.8628521
v -11.91253 0.7319312 -10.18653
v -14.05493 7.828988 -0.8628521
v -13.762 7.932578 -10.18653
v -13.762 7.932578 -0.8628521
v -14.05493 7.828987 -10.18653
v 3.15763 10.33092 -10.19018
v 3.15763 10.33092 -0.8665066
v 3.702477 10.19217 -10.19018
v 3.702477 10.19217 -0.8665066
v 4.065612 9.87603 -10.19018
v 4.065612 9.87603 -0.8665066
v 4.27584 9.519217 -10.19018
v 4.27584 9.519217 -0.8665066
v 4.304893 9.23878 -10.19018
v 4.304893 9.23878 -0.8665066
v 4.324264 9.030974 -10.19018
v 4.324264 9.030974 -0.8665066
v 4.324262 8.82317 -10.19018
v 4.324262 8.82317 -0.8665066
v 4.32426 8.247351 -10.19018
v 4.32426 8.247351 -0.8665066
v 4.464686 8.213866 -10.19018
v 4.464686 8.213866 -0.8665066
v 4.475776 8.015729 -10.19018
v 4.475776 8.015729 -0.8665066
v 4.722659 7.850331 -10.19018
v 4.722659 7.850331 -0.8665066
v 4.722659 7.850331 -10.19018
v 4.722659 7.850331 -0.8665066
v 4.754645 7.914461 -10.19018
v 4.754645 7.914461 -0.8665066
v 5.340514 7.45739 -10.19018
v 5.340514 7.45739 -0.8665066
v 5.369403 7.191807 -10.19018
v 5.369403 7.191807 -0.8665066
v 5.451941 7.14495 -10.19018
v 5.451941 7.14495 -0.8665066
v 5.464316 4.572455 -10.19018
v 5.464316 4.572455 -0.8665066
v 5.356486 4.54469 -10.19018
v 5.356486 4.54469 -0.8665066
v 5.317885 4.176963 -10.19018
v 5.317885 4.176963 -0.8665066
v 5.251708 3.914012 -10.19018
v 5.251708 3.914012 -0.8665066
v 4.953921 3.518713 -10.19018
v 4.953921 3.518713 -0.8665066
v 4.656135 3.156502 -10.19018
v 4.656135 3.156502 -0.8665066
v 4.512755 3.058989 -10.19018
v 4.512755 3.058989 -0.8665066
v 4.477622 2.843719 -10.19018
v 4.477622 2.843719 -0.8665066
v 4.341802 2.803079 -10.19018
v 4.341802 2.803079 -0.8665066
v 4.341802 2.803079 -10.19018
v 4.341802 2.803079 -0.8665066
v 4.237327 2.809453 -10.19018
v 4.237327 2.809453 -0.8665066
v 4.237327 2.809453 -10.19018
v 4.237327 2.809453 -0.8665066
v 4.190307 2.168067 -10.19018
v 4.190307 2.168067 -0.8665066
v 4.153739 1.547577 -10.19018
v 4.153739 1.547577 -0.8665066
v 4.090846 1.25982 -10.19018
v 4.090846 1.25982 -0.8665066
v 3.878963 1.019417 -10.19018
v 3.878963 1.019417 -0.8665066
v 3.60189 0.8564339 -10.19018
v 3.60189 0.8564339 -0.8665066
v 3.304442 0.746419 -10.19018
v 3.304442 0.746419 -0.8665066
v 3.059966 0.7179003 -10.19018
v 3.059966 0.7179003 -0.8665066
v 3.059966 0.7179003 -10.19018
v 3.059966 0.7179003 -0.8665066
v 2.905131 0.7138243 -10.19018
v 2.905131 0.7138243 -0.8665066
v 5.04758 7.810869 -10.19018
v 4.754645 7.914461 -0.8665066
v 4.754645 7.914461 -10.19018
v 5.04758 7.810869 -0.8665066

vn -0.2467643 0.9690756 -9.949077E-08
vn -0.2467633 0.9690758 -3.712528E-08
vn -0.3782388 0.9257081 -6.232953E-09
vn -0.5186185 0.8550058 5.279648E-08
vn -0.7261482 0.6875381 7.360662E-08
vn -0.795799 0.6055609 8.098354E-08
vn -0.9111694 0.4120319 9.278319E-08
vn -0.9598079 0.2806578 9.826107E-08
vn -0.9949582 0.1002896 1.019038E-07
vn -0.9952902 0.09694078 7.143956E-08
vn -0.9980749 0.0620207 3.406264E-08
vn -0.9995177 0.03105603 3.407852E-08
vn -1 3.847686E-06 8.084614E-08
vn -1 4.209114E-06 5.896023E-08
vn -0.9930526 0.1176713 4.935239E-08
vn -0.9163482 0.4003825 4.88245E-09
vn -0.6722577 0.7403172 6.010436E-08
vn -0.9352878 0.3538882 9.568944E-08
vn -0.9018582 0.4320323 9.204484E-08
vn -0.7233756 0.6904547 5.06671E-08
vn -0.5565799 0.8307941 2.823533E-08
vn -0.5565806 0.8307936 0
vn 0.8948792 0.4463084 0
vn 0.8948766 0.4463138 -4.576631E-08
vn 0.8948766 0.4463138 -4.576631E-08
vn 0.8948739 0.4463191 -9.153234E-08
vn -0.8452815 0.5343211 2.899653E-08
vn -0.9296108 0.3685428 6.654389E-08
vn -0.9717771 0.2359008 4.567767E-08
vn -0.879961 0.4750459 1.173788E-08
vn -0.9977922 0.06641443 1.001822E-07
vn -0.9997865 0.02066625 1.020983E-07
vn -0.9998711 -0.0160528 1.031696E-07
vn -0.9970222 -0.07711525 1.059192E-07
vn -0.857223 -0.5149453 1.141267E-07
vn -0.9718482 -0.235608 1.090283E-07
vn -0.9898457 -0.1421461 1.033446E-07
vn -0.9821901 -0.1878897 1.005447E-07
vn -0.9060932 -0.4230783 9.228202E-08
vn -0.8468136 -0.5318899 9.23525E-08
vn -0.7904403 -0.6125392 9.102367E-08
vn -0.7816939 -0.6236623 9.596371E-08
vn -0.7436528 -0.668566 9.327849E-08
vn -0.6900034 -0.7238062 7.678954E-08
vn -0.7867745 -0.6172406 3.499553E-08
vn -0.9270042 -0.3750512 4.824599E-08
vn -0.9161988 -0.4007241 6.116863E-08
vn -0.6950304 -0.7189804 7.976028E-08
vn -0.2866721 -0.9580288 3.91991E-08
vn -0.2866711 -0.958029 2.449805E-08
vn 0.06088925 -0.9981445 2.552735E-08
vn 0.06088953 -0.9981445 2.241155E-08
vn 0.06088953 -0.9981445 2.241155E-08
vn 0.06088981 -0.9981446 1.929573E-08
vn -0.9973243 -0.07310341 1.04065E-07
vn -0.9973245 -0.07310344 1.030383E-07
vn -0.9976543 -0.06845357 1.027698E-07
vn -0.9979693 -0.06369635 6.945349E-08
vn -0.9960648 -0.08862687 4.469387E-08
vn -0.9909123 -0.1345098 6.86257E-09
vn -0.9239999 -0.3823928 1.947929E-08
vn -0.8448719 -0.5349687 1.539478E-08
vn -0.6765018 -0.7364411 1.1336E-08
vn -0.5945128 -0.8040861 3.237349E-08
vn -0.4557141 -0.8901262 5.980036E-08
vn -0.4021707 -0.9155647 8.786091E-08
vn -0.2839346 -0.9588436 7.798562E-08
vn -0.2077984 -0.9781717 5.211507E-08
vn -0.1158763 -0.9932637 3.134993E-08
vn -0.1158751 -0.9932638 0
vn -0.02630976 -0.9996538 0
vn -0.02631138 -0.9996538 2.690808E-08
vn -0.02631138 -0.9996538 2.690808E-08
vn -0.026313 -0.9996538 5.381633E-08
vn -0.5378433 0.8430448 -4.732278E-08
vn -0.3333964 0.9427868 -3.116581E-08
vn -0.3333945 0.9427875 3.410132E-08
vn -0.6779813 0.7350791 -1.988281E-08
vn 0.2467679 0.9690746 0
vn 0.2467679 0.9690746 0
vn 0.378244 0.9257059 0
vn 0.5186244 0.8550022 0
vn 0.726153 0.6875331 0
vn 0.795803 0.6055556 0
vn 0.9111722 0.4120259 0
vn 0.9598101 0.2806505 0
vn 0.9949589 0.1002837 0
vn 0.9952901 0.09694089 0
vn 0.9980748 0.06202212 0
vn 0.9995178 0.03105135 0
vn 1 -5.771517E-06 0
vn 1 -4.209112E-06 0
vn 0.9930534 0.1176649 0
vn 0.9163501 0.400378 0
vn 0.6722615 0.7403137 0
vn 0.9352908 0.3538803 0
vn 0.9018614 0.4320254 0
vn 0.7233788 0.6904514 0
vn 0.5565828 0.8307921 0
vn 0.5565828 0.8307921 0
vn -0.8948659 0.446335 0
vn -0.8948659 0.446335 0
vn -0.8948659 0.446335 0
vn -0.8948659 0.446335 0
vn 0.8452846 0.5343164 0
vn 0.9296125 0.3685387 0
vn 0.9717773 0.2359005 0
vn 0.879961 0.4750458 0
vn 0.9977925 0.06640904 0
vn 0.9997866 0.02066037 0
vn 0.9998711 -0.01605906 0
vn 0.9970217 -0.07712248 0
vn 0.8572185 -0.5149527 0
vn 0.9718474 -0.2356109 0
vn 0.9898451 -0.1421499 0
vn 0.9821887 -0.1878976 0
vn 0.9060898 -0.4230854 0
vn 0.8468106 -0.5318947 0
vn 0.7904373 -0.612543 0
vn 0.7816909 -0.6236661 0
vn 0.7436486 -0.6685707 0
vn 0.6899979 -0.7238114 0
vn 0.786769 -0.6172475 0
vn 0.9270014 -0.375058 0
vn 0.9161957 -0.4007312 0
vn 0.695025 -0.7189856 0
vn 0.2866665 -0.9580304 0
vn 0.2866665 -0.9580304 0
vn -0.06089545 -0.9981441 0
vn -0.06089545 -0.9981441 0
vn -0.06089545 -0.9981441 0
vn -0.06089545 -0.9981441 0
vn 0.9973236 -0.07311376 0
vn 0.9973236 -0.07311376 0
vn 0.9976537 -0.06846206 0
vn 0.9979689 -0.06370244 0
vn 0.9960645 -0.08863065 0
vn 0.9909118 -0.134513 0
vn 0.9239973 -0.3823987 0
vn 0.8448672 -0.5349762 0
vn 0.6764967 -0.7364458 0
vn 0.5945088 -0.8040891 0
vn 0.4557094 -0.8901286 0
vn 0.4021642 -0.9155675 0
vn 0.2839266 -0.9588459 0
vn 0.2077901 -0.9781735 0
vn 0.1158664 -0.9932649 0
vn 0.1158664 -0.9932649 0
vn 0.02631575 -0.9996536 0
vn 0.02631575 -0.9996536 0
vn 0.02631575 -0.9996536 0
vn 0.02631575 -0.9996536 0
vn 0.537848 0.8430419 0
vn 0.3334019 0.9427848 0
vn 0.3334019 0.9427848 0
vn 0.6779854 0.7350754 0

vt 4.806529 -4.618773
vt 4.806529 4.618781
vt 4.685477 -4.618773
vt 4.685477 4.618781
vt 4.38124 -4.618773
vt 4.38124 4.618781
vt 4.031411 -4.618773
vt 4.031411 4.618781
vt 3.75206 -4.618773
vt 3.75206 4.618781
vt 3.544989 -4.618773
vt 3.544989 4.618781
vt 3.337294 -4.618773
vt 3.337294 4.618781
vt 2.761776 -4.618773
vt 2.761776 4.618781
vt 2.73285 -4.618773
vt 2.73285 4.618781
vt 2.535174 -4.618773
vt 2.535174 4.618781
vt 2.377846 -4.618773
vt 2.377846 4.618781
vt -2.224423 -4.618773
vt -2.224423 4.618781
vt -2.296087 -4.618773
vt -2.296087 4.618781
vt 2.005087 -4.618773
vt 2.005087 4.618781
vt 1.740577 -4.618773
vt 1.740577 4.618781
vt 1.696414 -4.618773
vt 1.696414 4.618781
vt -0.8743364 -4.618773
vt -0.8743364 4.618781
vt -0.9055728 -4.618773
vt -0.9055728 4.618781
vt -1.274356 -4.618773
vt -1.274356 4.618781
vt -1.539308 -4.618773
vt -1.539308 4.618781
vt -1.94403 -4.618773
vt -1.94403 4.618781
vt -2.315679 -4.618773
vt -2.315679 4.618781
vt -2.417778 -4.618773
vt -2.417778 4.618781
vt -2.634071 -4.618773
vt -2.634071 4.618781
vt -2.679082 -4.618773
vt -2.679082 4.618781
vt -4.618773 -0.01103526
vt 4.618781 -0.01103526
vt -4.618773 0.09363607
vt 4.618781 0.09363607
vt -2.676089 -4.618773
vt -2.676089 4.618781
vt -3.31866 -4.618773
vt -3.31866 4.618781
vt -3.940008 -4.618773
vt -3.940008 4.618781
vt -4.229648 -4.618773
vt -4.229648 4.618781
vt -4.476776 -4.618773
vt -4.476776 4.618781
vt -4.648633 -4.618773
vt -4.648633 4.618781
vt -4.768208 -4.618773
vt -4.768208 4.618781
vt -4.804617 -4.618773
vt -4.804617 4.618781
vt -4.618773 1.558761
vt 4.618781 1.558761
vt -4.618773 1.713649
vt 4.618781 1.713649
vt 2.34891 -4.618773
vt 2.442976 4.618781
vt 2.442976 -4.618773
vt 2.34891 4.618781
vt 0.2302598 -2.233367E-10
vt 0.2302598 9.237555
vt 0.1092078 -9.450873E-11
vt 0.1092078 9.237555
vt -0.1950294 -6.949508E-12
vt -0.1950294 9.237555
vt -0.5448583 4.505939E-11
vt -0.5448583 9.237555
vt -0.8242091 5.400051E-11
vt -0.8242091 9.237555
vt -1.03128 6.01193E-11
vt -1.03128 9.237555
vt -1.238976 6.169571E-11
vt -1.238976 9.237555
vt -1.814494 6.606406E-11
vt -1.814494 9.237555
vt -1.84342 9.925017E-11
vt -1.84342 9.237555
vt -2.041095 1.033542E-10
vt -2.041095 9.237555
vt -2.198424 1.625069E-10
vt -2.198424 9.237555
vt 1.709089 0
vt 1.709089 9.237555
vt 1.637425 0
vt 1.637425 9.237555
vt -2.571182 3.103849E-10
vt -2.571182 9.237555
vt -2.835692 3.191743E-10
vt -2.835692 9.237555
vt -2.879855 3.388862E-10
vt -2.879855 9.237555
vt -5.450605 3.613052E-10
vt -5.450605 9.237555
vt -5.481842 3.362284E-10
vt -5.481842 9.237555
vt -5.850626 3.299653E-10
vt -5.850626 9.237555
vt -6.115578 3.164411E-10
vt -6.115578 9.237555
vt -6.520299 2.496041E-10
vt -6.520299 9.237555
vt -6.891949 1.825164E-10
vt -6.891949 9.237555
vt -6.994048 1.496318E-10
vt -6.994048 9.237555
vt -7.21034 1.430257E-10
vt -7.21034 9.237555
vt -7.255352 1.11482E-10
vt -7.255352 9.237555
vt 0 -0.6823705
vt 9.237555 -0.6823705
vt 0 -0.5776992
vt 9.237555 -0.5776992
vt -7.252358 8.693216E-11
vt -7.252358 9.237555
vt -7.894929 8.077189E-11
vt -7.894929 9.237555
vt -8.516277 7.690344E-11
vt -8.516277 9.237555
vt -8.805917 6.433702E-11
vt -8.805917 9.237555
vt -9.053045 1.647146E-11
vt -9.053045 9.237555
vt -9.224901 -4.727027E-11
vt -9.224901 9.237555
vt -9.344477 -1.161915E-10
vt -9.344477 9.237555
vt -9.380886 -1.73309E-10
vt -9.380886 9.237555
vt 0 1.287219
vt 9.237555 1.287219
vt 0 1.442106
vt 9.237555 1.442106
vt -2.227359 2.390053E-10
vt -2.133293 9.237555
vt -2.133293 1.695215E-10
vt -2.227359 9.237555

g SideHousingWalls_0
usemtl Default_Prototype
f 23/23/23 24/24/24 26/26/26 25/25/25
f 51/51/51 52/52/52 54/54/54 53/53/53
f 71/71/71 72/72/72 74/74/74 73/73/73
f 101/101/101 102/102/102 104/104/104 103/103/103
f 129/129/129 130/130/130 132/132/132 131/131/131
f 149/149/149 150/150/150 152/152/152 151/151/151

g SideHousingWalls_1
usemtl CladingWall
f 68/68/68 70/70/70 69/69/69
f 67/67/67 68/68/68 69/69/69
f 66/66/66 68/68/68 67/67/67
f 65/65/65 66/66/66 67/67/67
f 64/64/64 66/66/66 65/65/65
f 63/63/63 64/64/64 65/65/65
f 62/62/62 64/64/64 63/63/63
f 61/61/61 62/62/62 63/63/63
f 60/60/60 62/62/62 61/61/61
f 59/59/59 60/60/60 61/61/61
f 58/58/58 60/60/60 59/59/59
f 57/57/57 58/58/58 59/59/59
f 56/56/56 58/58/58 57/57/57
f 55/55/55 56/56/56 57/57/57
f 48/48/48 50/50/50 49/49/49
f 47/47/47 48/48/48 49/49/49
f 46/46/46 48/48/48 47/47/47
f 45/45/45 46/46/46 47/47/47
f 44/44/44 46/46/46 45/45/45
f 43/43/43 44/44/44 45/45/45
f 42/42/42 44/44/44 43/43/43
f 41/41/41 42/42/42 43/43/43
f 40/40/40 42/42/42 41/41/41
f 39/39/39 40/40/40 41/41/41
f 38/38/38 40/40/40 39/39/39
f 37/37/37 38/38/38 39/39/39
f 36/36/36 38/38/38 37/37/37
f 35/35/35 36/36/36 37/37/37
f 34/34/34 36/36/36 35/35/35
f 33/33/33 34/34/34 35/35/35
f 32/32/32 34/34/34 33/33/33
f 31/31/31 32/32/32 33/33/33
f 30/30/30 32/32/32 31/31/31
f 29/29/29 30/30/30 31/31/31
f 28/28/28 30/30/30 29/29/29
f 27/27/27 28/28/28 29/29/29
f 78/78/78 28/28/28 27/27/27
f 78/78/78 27/27/27 75/75/75
f 76/76/76 78/78/78 75/75/75
f 76/76/76 75/75/75 77/77/77
f 20/20/20 22/22/22 21/21/21
f 19/19/19 20/20/20 21/21/21
f 18/18/18 20/20/20 19/19/19
f 17/17/17 18/18/18 19/19/19
f 16/16/16 18/18/18 17/17/17
f 15/15/15 16/16/16 17/17/17
f 14/14/14 16/16/16 15/15/15
f 13/13/13 14/14/14 15/15/15
f 12/12/12 14/14/14 13/13/13
f 11/11/11 12/12/12 13/13/13
f 10/10/10 12/12/12 11/11/11
f 9/9/9 10/10/10 11/11/11
f 8/8/8 10/10/10 9/9/9
f 7/7/7 8/8/8 9/9/9
f 6/6/6 8/8/8 7/7/7
f 5/5/5 6/6/6 7/7/7
f 4/4/4 6/6/6 5/5/5
f 3/3/3 4/4/4 5/5/5
f 2/2/2 4/4/4 3/3/3
f 1/1/1 2/2/2 3/3/3
f 146/146/146 148/148/148 147/147/147
f 145/145/145 146/146/146 147/147/147
f 144/144/144 146/146/146 145/145/145
f 143/143/143 144/144/144 145/145/145
f 142/142/142 144/144/144 143/143/143
f 141/141/141 142/142/142 143/143/143
f 140/140/140 142/142/142 141/141/141
f 139/139/139 140/140/140 141/141/141
f 138/138/138 140/140/140 139/139/139
f 137/137/137 138/138/138 139/139/139
f 136/136/136 138/138/138 137/137/137
f 135/135/135 136/136/136 137/137/137
f 134/134/134 136/136/136 135/135/135
f 133/133/133 134/134/134 135/135/135
f 126/126/126 128/128/128 127/127/127
f 125/125/125 126/126/126 127/127/127
f 124/124/124 126/126/126 125/125/125
f 123/123/123 124/124/124 125/125/125
f 122/122/122 124/124/124 123/123/123
f 121/121/121 122/122/122 123/123/123
f 120/120/120 122/122/122 121/121/121
f 119/119/119 120/120/120 121/121/121
f 118/118/118 120/120/120 119/119/119
f 117/117/117 118/118/118 119/119/119
f 116/116/116 118/118/118 117/117/117
f 115/115/115 116/116/116 117/117/117
f 114/114/114 116/116/116 115/115/115
f 113/113/113 114/114/114 115/115/115
f 112/112/112 114/114/114 113/113/113
f 111/111/111 112/112/112 113/113/113
f 110/110/110 112/112/112 111/111/111
f 109/109/109 110/110/110 111/111/111
f 108/108/108 110/110/110 109/109/109
f 107/107/107 108/108/108 109/109/109
f 106/106/106 108/108/108 107/107/107
f 105/105/105 106/106/106 107/107/107
f 156/156/156 106/106/106 105/105/105
f 156/156/156 105/105/105 153/153/153
f 154/154/154 156/156/156 153/153/153
f 154/154/154 153/153/153 155/155/155
f 98/98/98 100/100/100 99/99/99
f 97/97/97 98/98/98 99/99/99
f 96/96/96 98/98/98 97/97/97
f 95/95/95 96/96/96 97/97/97
f 94/94/94 96/96/96 95/95/95
f 93/93/93 94/94/94 95/95/95
f 92/92/92 94/94/94 93/93/93
f 91/91/91 92/92/92 93/93/93
f 90/90/90 92/92/92 91/91/91
f 89/89/89 90/90/90 91/91/91
f 88/88/88 90/90/90 89/89/89
f 87/87/87 88/88/88 89/89/89
f 86/86/86 88/88/88 87/87/87
f 85/85/85 86/86/86 87/87/87
f 84/84/84 86/86/86 85/85/85
f 83/83/83 84/84/84 85/85/85
f 82/82/82 84/84/84 83/83/83
f 81/81/81 82/82/82 83/83/83
f 80/80/80 82/82/82 81/81/81
f 79/79/79 80/80/80 81/81/81

