# Blender v2.79 (sub 0) OBJ File: ''
# www.blender.org
mtllib ChainCenter.mtl
o ChainCenter.003
v -1.124668 -0.413383 0.135364
v -1.164696 -0.412441 0.065087
v -1.164696 -0.405589 0.254275
v -1.116874 -0.405589 0.254276
v 0.689554 -0.405594 0.254276
v 0.726937 -0.413834 0.086248
v 0.697348 -0.413388 0.135365
v -1.164696 -0.370061 0.418704
v -1.093626 -0.382340 0.371153
v 0.726937 -0.395490 0.323822
v 0.666306 -0.382346 0.371149
v -1.055322 -0.344035 0.483993
v 0.628002 -0.344042 0.483992
v -1.164695 -0.291332 0.590868
v 0.726937 -0.320473 0.538805
v 0.575296 -0.291335 0.590870
v -1.002617 -0.291332 0.590868
v 0.726937 -0.369222 -0.154000
v 0.628002 -0.344042 -0.213261
v -1.147519 -0.344034 -0.213267
v -1.164696 -0.316274 -0.277828
v -1.164696 -0.382340 -0.100422
v -1.140123 -0.382341 -0.100419
v 0.666306 -0.382345 -0.100422
v -1.145399 -0.355015 -0.180918
v -1.055321 -0.344034 -0.213267
v -1.093626 -0.382340 -0.100421
v -1.132462 -0.405588 0.016456
v 0.689554 -0.405594 0.016455
v -1.132631 -0.405073 0.013866
v -1.116874 -0.405588 0.016453
v -1.128598 -0.409451 0.075397
v -1.164695 -0.195577 0.729192
v -0.936411 -0.225126 0.689951
v 0.726938 -0.225130 0.689952
v 0.509090 -0.225129 0.689952
v -0.857841 -0.146556 0.779544
v 0.726938 -0.103809 0.821167
v 0.430518 -0.146557 0.779547
v -1.164695 -0.009886 0.894922
v -0.768244 -0.056958 0.858119
v 0.340929 -0.056969 0.858114
v -0.729857 0.042122 0.924322
v 0.726938 0.084429 0.949265
v 0.241848 0.042113 0.924319
v -1.164694 0.215793 1.002980
v -0.562295 0.148989 0.977024
v 0.134963 0.148997 0.977027
v -0.449444 0.261840 1.015332
v 0.726939 0.261834 1.015331
v 0.022122 0.261840 1.015332
v -1.164694 0.378713 1.038579
v -0.332603 0.378679 1.038577
v -0.094799 0.378770 1.038585
v 0.726939 0.437918 1.046357
v -1.164693 0.497622 1.046373
v -0.213664 0.497623 1.046374
v -1.164693 0.616538 1.038579
v -0.332572 0.616536 1.038579
v -0.094842 0.616435 1.038587
v 0.726940 0.663813 1.032341
v -1.164692 0.791260 1.000393
v -0.449447 0.733411 1.015331
v 0.022149 0.733436 1.015325
v -0.562289 0.846252 0.977026
v 0.726941 0.846244 0.977028
v 0.095950 0.807232 0.990271
v -1.164692 0.953132 0.924320
v -0.669164 0.953128 0.924322
v 0.241844 0.953125 0.924322
v 0.726941 1.004388 0.893803
v -1.164692 1.099056 0.821166
v -0.768247 1.052212 0.858115
v 0.340928 1.052211 0.858114
v -0.857838 1.141802 0.779548
v 0.726942 1.176849 0.745128
v 0.430521 1.141802 0.779543
v -1.164691 1.257178 0.642884
v -0.936413 1.220378 0.689950
v 0.509091 1.220372 0.689952
v -1.002616 1.286581 0.590870
v 0.726942 1.311522 0.548555
v 0.575297 1.286577 0.590868
v -1.164691 1.361381 0.428568
v -1.055322 1.339287 0.483994
v 0.628001 1.339282 0.483993
v -1.093627 1.377592 0.371150
v 0.726942 1.390731 0.323822
v 0.666306 1.377586 0.371151
v -1.164691 1.400841 0.254275
v -1.116874 1.400840 0.254276
v 0.689554 1.400835 0.254276
v -1.164691 1.409080 0.086243
v -1.124668 1.408634 0.135365
v 0.726942 1.409075 0.086250
v 0.697348 1.408629 0.135365
v -1.132463 1.400839 0.016452
v 0.689554 1.400834 0.016454
v -1.116874 1.400840 0.016454
v -1.128599 1.404703 0.075397
v -1.164691 1.377593 -0.100422
v -1.140123 1.377590 -0.100426
v 0.726942 1.377587 -0.100421
v 0.666306 1.377586 -0.100422
v -1.093626 1.377592 -0.100421
v -1.136702 1.387972 -0.048239
v -1.164691 1.320906 -0.258807
v -1.147519 1.339290 -0.213256
v 0.726942 1.315716 -0.268072
v 0.628001 1.339283 -0.213263
v -1.140954 1.373288 -0.113102
v -1.055322 1.339288 -0.213262
v -1.154524 1.286583 -0.320137
v 0.575296 1.286576 -0.320139
v -1.150092 1.319929 -0.252516
v -1.002616 1.286581 -0.320140
v -1.164691 1.184442 -0.466947
v -1.161018 1.220379 -0.419220
v 0.726942 1.220369 -0.419224
v 0.509091 1.220373 -0.419222
v -0.936411 1.220376 -0.419222
v -1.155098 1.280728 -0.328900
v 0.726941 1.099051 -0.550435
v 0.430519 1.141802 -0.508815
v -0.857839 1.141804 -0.508816
v 0.340926 1.052209 -0.587386
v -0.768244 1.052209 -0.587388
v 0.726941 0.953127 -0.653589
v 0.241845 0.953128 -0.653590
v -1.164692 0.995893 -0.629416
v -0.669161 0.953125 -0.653592
v 0.726941 0.780966 -0.732319
v 0.134966 0.846249 -0.706297
v -0.562291 0.846255 -0.706296
v 0.022125 0.733408 -0.744601
v -1.164692 0.780979 -0.732316
v -0.449493 0.733458 -0.744590
v 0.726940 0.616526 -0.767849
v -0.094735 0.616548 -0.767847
v -1.164693 0.569261 -0.774059
v -0.332554 0.616507 -0.767850
v 0.726940 0.497614 -0.775642
v -0.213659 0.497623 -0.775644
v 0.726939 0.292993 -0.753675
v -0.094710 0.378667 -0.767846
v -1.164694 0.329974 -0.761883
v -0.332560 0.378726 -0.767851
v 0.022119 0.261844 -0.744602
v -0.449479 0.261807 -0.744591
v 0.726938 0.084437 -0.678540
v 0.134973 0.148990 -0.706295
v -1.164694 0.149002 -0.706298
v -0.562286 0.148998 -0.706297
v 0.241841 0.042120 -0.653592
v -1.164695 -0.000643 -0.629415
v -0.669167 0.042117 -0.653588
v 0.726938 -0.112147 -0.543859
v 0.340924 -0.056963 -0.587387
v -0.768247 -0.056962 -0.587386
v 0.430519 -0.146558 -0.508815
v -0.857839 -0.146554 -0.508816
v -1.164695 -0.181609 -0.474387
v 0.726937 -0.260817 -0.371402
v 0.509090 -0.225129 -0.419223
v -1.161018 -0.225125 -0.419223
v -0.936412 -0.225126 -0.419221
v -1.154524 -0.291329 -0.320142
v 0.575296 -0.291336 -0.320138
v -1.155098 -0.285476 -0.328900
v -1.002617 -0.291331 -0.320138
v -1.150091 -0.324677 -0.252516
vt 0.073252 4.160000
vt 0.013040 4.160000
vt -0.073252 4.071972
vt 0.073149 4.054832
vt 0.073246 0.000000
vt 0.073253 0.082211
vt -0.013026 -0.000000
vt -0.073252 0.065071
vt 0.073251 4.160000
vt 0.073166 4.003705
vt 0.073248 0.133337
vt 0.073253 3.919469
vt 0.073268 -0.000000
vt 0.073252 0.217575
vt 0.073251 4.160000
vt 0.073253 3.803564
vt 0.073252 0.333484
vt 0.073251 4.160000
vt 0.013035 4.160000
vt -0.073254 4.122226
vt 0.073251 4.105960
vt 0.073252 0.133338
vt 0.073254 0.217574
vt 0.073251 -0.000000
vt -0.031258 4.117563
vt -0.073255 3.919466
vt 0.073252 4.003707
vt 0.073153 4.089112
vt 0.073253 0.082211
vt 0.070007 4.089486
vt 0.073308 4.054832
vt -0.000633 4.080616
vt 0.073252 4.160000
vt 0.073249 3.657968
vt 0.073252 -0.000000
vt 0.073254 0.479080
vt 0.073269 3.485179
vt 0.073254 0.651874
vt 0.073256 -0.000006
vt 0.073252 4.160000
vt 0.073243 3.288146
vt 0.073248 0.848895
vt 0.048547 3.206847
vt 0.073250 1.301845
vt 0.073249 1.066790
vt 0.073250 -0.000000
vt 0.073266 2.835229
vt 0.073251 4.159999
vt 0.073252 2.587051
vt 0.073252 0.000000
vt 0.073253 1.550004
vt 0.073251 4.160000
vt 0.073300 2.330107
vt 0.073425 1.807127
vt 0.073251 0.000000
vt 0.073252 4.160000
vt 0.073252 2.068536
vt 0.073252 4.160000
vt 0.073250 2.330036
vt 0.073134 1.807232
vt 0.073252 0.000000
vt 0.073251 2.587061
vt 0.073251 4.160000
vt 0.073285 1.549946
vt 0.073243 2.835219
vt 0.073249 1.066806
vt 0.024375 1.387849
vt 0.073247 0.000000
vt 0.073252 3.070255
vt 0.073251 4.159999
vt 0.073253 0.000000
vt 0.073249 3.288157
vt 0.073251 4.160000
vt 0.073254 0.848903
vt 0.073272 3.485179
vt 0.073265 -0.000000
vt 0.073255 0.651875
vt 0.073252 4.160001
vt 0.073241 3.657979
vt 0.073250 0.479089
vt 0.073267 3.803571
vt 0.073255 -0.000000
vt 0.073253 0.333491
vt 0.073273 3.919479
vt 0.073252 4.160000
vt 0.073250 0.217588
vt 0.073217 4.003718
vt 0.073237 0.000000
vt 0.073251 0.133350
vt 0.073251 4.160000
vt 0.073273 4.054844
vt 0.073251 0.082223
vt 0.073252 4.160000
vt 0.073170 4.071985
vt 0.073251 0.000000
vt 0.073252 0.065083
vt 0.073114 4.089124
vt 0.073252 0.082223
vt 0.073251 4.054844
vt 0.000631 4.080628
vt 0.073251 4.071985
vt 0.073252 4.160000
vt 0.072834 4.105971
vt 0.073252 0.000000
vt 0.073253 0.133349
vt 0.073266 4.003717
vt 0.007842 4.098449
vt 0.073251 4.160000
vt 0.073721 4.122234
vt 0.073253 0.217586
vt 0.073252 -0.000000
vt 0.073278 3.919481
vt -0.056789 4.107799
vt 0.074303 4.137640
vt 0.073252 0.333494
vt -0.019444 4.127894
vt 0.073242 3.803572
vt 0.073252 4.160000
vt 0.073251 4.151922
vt 0.073252 -0.000000
vt 0.073251 0.479088
vt 0.073251 3.657975
vt -0.060297 4.138904
vt 0.073251 0.651879
vt 0.073251 -0.000001
vt 0.073240 3.485181
vt 0.073251 0.848908
vt 0.073225 3.288147
vt 0.073252 4.160000
vt 0.073252 0.000000
vt 0.073247 1.066803
vt 0.073237 3.070247
vt 0.073253 1.301846
vt 0.073251 0.000000
vt 0.073252 2.835223
vt 0.073256 4.160000
vt 0.073250 1.550000
vt 0.073330 2.587165
vt 0.073251 -0.000000
vt 0.073234 1.806994
vt 0.073251 4.160000
vt 0.073214 2.329992
vt 0.073252 0.000000
vt 0.073252 2.068524
vt 0.073251 -0.000000
vt 0.073304 1.806937
vt 0.073252 4.160000
vt 0.073269 2.330006
vt 0.073244 1.550014
vt 0.073181 2.587129
vt 0.073251 0.000000
vt 0.073248 1.301826
vt 0.073252 4.159998
vt 0.073256 2.835208
vt 0.073249 1.066805
vt 0.073252 4.160000
vt 0.073242 3.070258
vt 0.073246 0.848906
vt 0.073251 0.000000
vt 0.073248 3.288148
vt 0.073251 0.651872
vt 0.073097 4.159992
vt 0.073258 3.485174
vt 0.073225 -0.000000
vt 0.073250 0.479081
vt -0.073010 4.151901
vt 0.073250 3.657969
vt 0.075120 4.137630
vt 0.073253 0.333482
vt 0.060298 4.138894
vt 0.073216 3.803564
vt 0.019444 4.127883
vn -0.0090 -0.9930 0.1174
vn 0.0417 -0.9947 -0.0936
vn -0.0293 -0.9990 0.0343
vn 0.0158 -0.9883 0.1516
vn -0.0163 -0.9753 0.2201
vn 0.0969 -0.9886 0.1148
vn -0.0500 -0.9976 -0.0484
vn 0.0801 -0.9957 0.0459
vn -0.0020 -0.9558 0.2939
vn -0.0035 -0.9646 0.2638
vn 0.0460 -0.9557 0.2907
vn -0.0118 -0.9071 0.4207
vn -0.0056 -0.8935 0.4491
vn 0.0306 -0.9297 0.3671
vn 0.0007 -0.8804 0.4743
vn -0.0003 -0.8444 0.5357
vn 0.0297 -0.8596 0.5102
vn -0.0093 -0.9633 -0.2682
vn 0.1973 -0.8673 -0.4570
vn -0.1579 -0.9310 -0.3290
vn -0.0233 -0.9711 -0.2374
vn 0.0091 -0.9656 -0.2599
vn 0.0480 -0.8883 -0.4568
vn -0.0283 -0.9528 -0.3023
vn -0.0000 -0.9469 -0.3214
vn 0.0092 -0.9060 -0.4232
vn -0.0077 -0.9229 -0.3850
vn 0.0098 -0.9600 -0.2797
vn 0.0047 -0.9672 -0.2540
vn -0.0397 -0.9886 -0.1451
vn 0.1086 -0.9793 -0.1710
vn -0.0003 -0.9808 -0.1952
vn -0.0019 -0.9846 -0.1750
vn -0.0190 -0.9902 -0.1380
vn -0.0001 -0.9979 -0.0654
vn -0.0000 -0.9980 -0.0631
vn 0.0001 -0.7695 0.6387
vn 0.0100 -0.7759 0.6308
vn -0.0062 -0.7752 0.6316
vn 0.0236 -0.7801 0.6252
vn 0.0001 -0.6748 0.7380
vn 0.0109 -0.7021 0.7120
vn -0.0161 -0.6321 0.7747
vn 0.0046 -0.5771 0.8166
vn 0.0237 -0.5874 0.8089
vn 0.0231 -0.5886 0.8081
vn 0.0361 -0.5317 0.8462
vn -0.0010 -0.3535 0.9354
vn 0.0097 -0.4846 0.8747
vn -0.0103 -0.4388 0.8985
vn 0.0153 -0.3419 0.9396
vn -0.0019 -0.3381 0.9411
vn 0.0071 -0.2146 0.9767
vn 0.0040 -0.2471 0.9690
vn 0.0272 -0.2524 0.9672
vn 0.0093 -0.1596 0.9871
vn 0.0013 -0.0960 0.9954
vn -0.0030 -0.1030 0.9947
vn 0.0033 -0.0531 0.9986
vn 0.0078 -0.0117 0.9999
vn -0.0008 0.0014 1.0000
vn 0.0001 0.0061 1.0000
vn 0.0065 0.1227 0.9924
vn -0.0048 0.1011 0.9949
vn -0.0147 0.0938 0.9955
vn -0.0001 0.1768 0.9843
vn -0.0130 0.2346 0.9720
vn 0.0104 0.2972 0.9547
vn -0.0405 0.2232 0.9739
vn -0.0073 0.3714 0.9284
vn 0.0018 0.4386 0.8987
vn -0.0016 0.3451 0.9386
vn 0.0046 0.3961 0.9182
vn -0.0322 0.4790 0.8772
vn 0.0015 0.4857 0.8741
vn -0.0034 0.5669 0.8238
vn -0.0209 0.5962 0.8026
vn 0.0005 0.6430 0.7659
vn -0.0304 0.5705 0.8208
vn -0.0133 0.7038 0.7102
vn 0.0037 0.7484 0.6633
vn -0.0262 0.6599 0.7509
vn -0.0080 0.8174 0.5760
vn -0.0281 0.7792 0.6261
vn 0.0273 0.7700 0.6374
vn -0.0291 0.8764 0.4807
vn 0.0150 0.8923 0.4512
vn 0.0375 0.8314 0.5544
vn -0.0468 0.9209 0.3869
vn -0.0128 0.9395 0.3423
vn 0.0478 0.9153 0.3999
vn -0.0287 0.9737 0.2258
vn -0.0096 0.9798 0.1996
vn 0.0047 0.9404 0.3399
vn -0.0076 0.9887 0.1499
vn -0.0219 0.9925 0.1207
vn 0.0451 0.9963 0.0733
vn 0.0394 0.9987 -0.0312
vn -0.0499 0.9969 0.0611
vn -0.0453 0.9966 -0.0689
vn 0.1020 0.9944 0.0272
vn -0.0872 0.9830 -0.1616
vn 0.0921 0.9859 -0.1398
vn 0.0363 0.9931 -0.1115
vn 0.0192 0.9921 -0.1242
vn 0.0001 0.9979 -0.0654
vn 0.0004 0.9979 -0.0646
vn -0.0091 0.9709 -0.2394
vn -0.0241 0.9619 -0.2724
vn -0.0080 0.9590 -0.2833
vn 0.0265 0.9674 -0.2517
vn 0.0210 0.9538 -0.2996
vn 0.0316 0.9644 -0.2627
vn -0.0000 0.9808 -0.1951
vn 0.1782 0.8933 -0.4127
vn -0.1713 0.9358 -0.3080
vn 0.0315 0.9290 -0.3687
vn -0.0015 0.8860 -0.4637
vn 0.0022 0.9084 -0.4180
vn 0.0289 0.9266 -0.3750
vn 0.0000 0.9469 -0.3214
vn -0.4017 0.7813 -0.4778
vn 0.0412 0.8561 -0.5151
vn -0.0000 0.8969 -0.4423
vn 0.0401 0.8634 -0.5030
vn 0.0045 0.8469 -0.5317
vn -0.0074 0.7586 -0.6515
vn -0.6395 0.6422 -0.4227
vn -0.0100 0.7784 -0.6277
vn 0.0260 0.7849 -0.6191
vn 0.0019 0.7535 -0.6574
vn 0.0000 0.8315 -0.5556
vn 0.0131 0.7009 -0.7132
vn -0.0008 0.6472 -0.7623
vn -0.0039 0.6539 -0.7566
vn 0.0219 0.5898 -0.8073
vn 0.0087 0.5727 -0.8197
vn -0.0016 0.5648 -0.8253
vn -0.0090 0.4833 -0.8754
vn 0.0201 0.4773 -0.8785
vn 0.0031 0.4539 -0.8910
vn 0.0090 0.3649 -0.9310
vn -0.0221 0.2986 -0.9541
vn 0.0219 0.3514 -0.9360
vn 0.0184 0.3312 -0.9434
vn 0.0244 0.2094 -0.9775
vn 0.0130 0.2238 -0.9745
vn -0.0063 0.1275 -0.9918
vn 0.0107 0.1022 -0.9947
vn -0.0023 0.0723 -0.9974
vn 0.0246 0.1117 -0.9934
vn -0.0087 -0.0280 -0.9996
vn 0.0008 0.0019 -1.0000
vn 0.0001 -0.0022 -1.0000
vn -0.0143 -0.2391 -0.9709
vn -0.0027 -0.0887 -0.9961
vn 0.0011 -0.1525 -0.9883
vn -0.0057 -0.1013 -0.9948
vn -0.0028 -0.2291 -0.9734
vn -0.0038 -0.2473 -0.9689
vn -0.0293 -0.4726 -0.8808
vn -0.0015 -0.3417 -0.9398
vn 0.0111 -0.3597 -0.9330
vn -0.0064 -0.3743 -0.9273
vn -0.0075 -0.4692 -0.8831
vn 0.0053 -0.5338 -0.8456
vn -0.0192 -0.4737 -0.8805
vn 0.0010 -0.5700 -0.8217
vn -0.0233 -0.6790 -0.7337
vn -0.0070 -0.5986 -0.8010
vn -0.0053 -0.6841 -0.7294
vn -0.0222 -0.6954 -0.7182
vn -0.0157 -0.6895 -0.7241
vn 0.0063 -0.8401 -0.5424
vn 0.0045 -0.7609 -0.6488
vn -0.4458 -0.7232 -0.5275
vn -0.0075 -0.7851 -0.6194
vn -0.1894 -0.8337 -0.5188
vn 0.0241 -0.8479 -0.5296
vn -0.0000 -0.8315 -0.5556
vn -0.0016 -0.8420 -0.5395
vn -0.0129 -0.8605 -0.5093
vn -0.0000 -0.8969 -0.4423
usemtl Default_Prototype.003
s 1
f 3/1/1 2/2/2 1/3/3
f 4/4/4 3/1/1 1/3/3
f 10/5/5 5/6/6 6/7/7
f 5/6/6 7/8/8 6/7/7
f 8/9/9 3/1/1 4/4/4
f 9/10/10 8/9/9 4/4/4
f 11/11/11 5/6/6 10/5/5
f 12/12/12 8/9/9 9/10/10
f 15/13/13 13/14/14 10/5/5
f 13/14/14 11/11/11 10/5/5
f 14/15/15 8/9/9 12/12/12
f 17/16/16 14/15/15 12/12/12
f 16/17/17 13/14/14 15/13/13
f 22/18/18 21/19/19 20/20/20
f 23/21/21 22/18/18 20/20/20
f 24/22/22 19/23/23 18/24/24
f 25/25/25 20/20/26 26/26/27
f 23/21/28 25/25/25 26/26/27
f 27/27/29 23/21/28 26/26/27
f 2/2/2 22/18/18 23/21/21
f 28/28/30 2/2/2 23/21/21
f 6/7/7 29/29/31 18/24/24
f 29/29/31 24/22/22 18/24/24
f 30/30/32 23/21/28 27/27/29
f 28/28/33 30/30/32 27/27/29
f 31/31/34 28/28/33 27/27/29
f 1/3/3 2/2/2 28/28/30
f 7/8/8 29/29/31 6/7/7
f 32/32/35 28/28/33 31/31/34
f 1/3/36 32/32/35 31/31/34
f 33/33/37 14/15/15 17/16/16
f 34/34/38 33/33/37 17/16/16
f 35/35/39 16/17/17 15/13/13
f 35/35/39 36/36/40 16/17/17
f 37/37/41 33/33/37 34/34/38
f 39/38/42 35/35/39 38/39/43
f 39/38/42 36/36/40 35/35/39
f 40/40/44 33/33/37 37/37/41
f 41/41/45 40/40/44 37/37/41
f 42/42/46 39/38/42 38/39/43
f 43/43/47 40/40/44 41/41/45
f 48/44/48 45/45/49 44/46/50
f 44/46/50 42/42/46 38/39/43
f 44/46/50 45/45/49 42/42/46
f 47/47/51 46/48/52 40/40/44
f 47/47/51 40/40/44 43/43/47
f 49/49/53 46/48/52 47/47/51
f 50/50/54 48/44/48 44/46/50
f 51/51/55 48/44/48 50/50/54
f 52/52/56 46/48/52 49/49/53
f 53/53/57 52/52/56 49/49/53
f 54/54/58 51/51/55 50/50/54
f 55/55/59 54/54/58 50/50/54
f 56/56/60 52/52/56 53/53/57
f 57/57/61 56/56/60 53/53/57
f 55/55/59 57/57/62 54/54/58
f 58/58/63 56/56/60 57/57/61
f 59/59/64 58/58/63 57/57/61
f 60/60/65 57/57/62 55/55/59
f 61/61/66 60/60/65 55/55/59
f 63/62/67 62/63/68 58/58/63
f 63/62/67 58/58/63 59/59/64
f 61/61/66 64/64/69 60/60/65
f 65/65/70 62/63/68 63/62/67
f 70/66/71 67/67/72 66/68/73
f 64/64/69 61/61/66 66/68/73
f 67/67/72 64/64/69 66/68/73
f 47/47/51 43/43/47 41/41/45
f 69/69/74 68/70/75 62/63/68
f 69/69/74 62/63/68 65/65/70
f 71/71/76 70/66/71 66/68/73
f 73/72/77 72/73/78 68/70/75
f 73/72/77 68/70/75 69/69/74
f 74/74/79 70/66/71 71/71/76
f 75/75/80 72/73/78 73/72/77
f 76/76/81 74/74/79 71/71/76
f 76/76/81 77/77/82 74/74/79
f 78/78/83 72/73/78 75/75/80
f 79/79/84 78/78/83 75/75/80
f 76/76/81 80/80/85 77/77/82
f 81/81/86 78/78/83 79/79/84
f 80/80/85 76/76/81 82/82/87
f 82/82/87 83/83/88 80/80/85
f 85/84/89 84/85/90 78/78/83
f 85/84/89 78/78/83 81/81/86
f 82/82/87 86/86/91 83/83/88
f 87/87/92 84/85/90 85/84/89
f 88/88/93 86/86/91 82/82/87
f 88/88/93 89/89/94 86/86/91
f 90/90/95 84/85/90 87/87/92
f 91/91/96 90/90/95 87/87/92
f 92/92/97 89/89/94 88/88/93
f 93/93/98 90/90/95 91/91/96
f 94/94/99 93/93/98 91/91/96
f 95/95/100 92/92/97 88/88/93
f 95/95/100 96/96/101 92/92/97
f 97/97/102 93/93/98 94/94/99
f 98/98/103 96/96/101 95/95/100
f 99/99/104 97/97/105 100/100/106
f 99/99/104 100/100/106 94/101/107
f 101/102/108 93/93/98 97/97/102
f 102/103/109 101/102/108 97/97/102
f 103/104/110 98/98/103 95/95/100
f 103/104/110 104/105/111 98/98/103
f 105/106/112 102/103/113 106/107/114
f 105/106/112 106/107/114 97/97/105
f 105/106/112 97/97/105 99/99/104
f 107/108/115 101/102/108 102/103/109
f 108/109/116 107/108/115 102/103/109
f 110/110/117 104/105/111 103/104/110
f 109/111/118 110/110/117 103/104/110
f 112/112/119 108/109/120 111/113/121
f 111/113/121 102/103/113 105/106/112
f 112/112/119 111/113/121 105/106/112
f 113/114/122 107/108/115 108/109/116
f 114/115/123 110/110/117 109/111/118
f 115/116/124 108/109/120 112/112/119
f 113/114/125 115/116/124 112/112/119
f 116/117/126 113/114/125 112/112/119
f 117/118/127 107/108/115 113/114/122
f 118/119/128 117/118/127 113/114/122
f 119/120/129 114/115/123 109/111/118
f 119/120/129 120/121/130 114/115/123
f 121/122/131 118/119/128 122/123/132
f 122/123/132 113/114/125 116/117/126
f 121/122/131 122/123/132 116/117/126
f 124/124/133 120/121/130 119/120/129
f 123/125/134 124/124/133 119/120/129
f 125/126/135 117/118/127 118/119/128
f 125/126/135 118/119/128 121/122/131
f 123/125/134 126/127/136 124/124/133
f 127/128/137 130/129/138 117/118/127
f 127/128/137 117/118/127 125/126/135
f 128/130/139 126/127/136 123/125/134
f 128/130/139 129/131/140 126/127/136
f 131/132/141 130/129/138 127/128/137
f 133/133/142 129/131/140 128/130/139
f 132/134/143 133/133/142 128/130/139
f 134/135/144 136/136/145 130/129/138
f 134/135/144 130/129/138 131/132/141
f 132/134/143 135/137/146 133/133/142
f 137/138/147 136/136/145 134/135/144
f 138/139/148 135/137/146 132/134/143
f 138/139/148 139/140/149 135/137/146
f 140/141/150 136/136/145 137/138/147
f 141/142/151 140/141/150 137/138/147
f 142/143/152 139/140/149 138/139/148
f 142/143/152 143/144/153 139/140/149
f 143/144/154 140/141/150 141/142/151
f 144/145/155 145/146/156 142/143/152
f 145/146/156 143/144/153 142/143/152
f 146/147/157 140/141/150 143/144/154
f 147/148/158 146/147/157 143/144/154
f 144/145/155 148/149/159 145/146/156
f 149/150/160 146/147/157 147/148/158
f 150/151/161 151/152/162 144/145/155
f 151/152/162 148/149/159 144/145/155
f 152/153/163 146/147/157 149/150/160
f 153/154/164 152/153/163 149/150/160
f 154/155/165 151/152/162 150/151/161
f 155/156/166 152/153/163 153/154/164
f 156/157/167 155/156/166 153/154/164
f 158/158/168 154/155/165 150/151/161
f 157/159/169 158/158/168 150/151/161
f 159/160/170 155/156/166 156/157/167
f 160/161/171 158/158/168 157/159/169
f 162/162/172 155/156/166 159/160/170
f 161/163/173 162/162/172 159/160/170
f 163/164/174 164/165/175 157/159/169
f 164/165/175 160/161/171 157/159/169
f 165/166/176 162/162/172 161/163/173
f 166/167/177 165/166/176 161/163/173
f 21/19/19 162/162/172 165/166/176
f 167/168/178 21/19/19 165/166/176
f 168/169/179 164/165/175 163/164/174
f 169/170/180 165/166/176 166/167/177
f 167/168/181 169/170/180 166/167/177
f 170/171/182 167/168/181 166/167/177
f 20/20/20 21/19/19 167/168/178
f 18/24/24 168/169/179 163/164/174
f 18/24/24 19/23/23 168/169/179
f 171/172/183 167/168/181 170/171/182
f 20/20/26 171/172/183 170/171/182
f 26/26/27 20/20/26 170/171/182
