# Exported from ProBuilder
# http://www.procore3d.com/probuilder
# 6/15/2019 9:48:09 PM

mtllib ./HousingAndInnderWalls.mtl
o HousingAndInnderWalls

g HousingAndInnderWalls
v -11.66847 10.24999 -10.13948
v -11.66847 10.24999 -0.854466
v -11.66849 0.6900148 -10.13948
v -11.66849 0.6900148 -0.854466
v 2.641521 10.253 -10.13948
v 2.641521 10.253 -0.8544655
v 2.641494 0.6930265 -10.13948
v 2.641494 0.6930265 -0.8544655
v -12.40836 0.7851372 -10.18653
v -12.06736 0.7360067 -0.8628521
v -12.06736 0.7360082 -10.18653
v -12.45967 0.802485 -0.8628521
v -12.88636 1.037531 -10.18653
v -12.88636 1.037529 -0.8628521
v -13.13121 1.327663 -10.18653
v -13.12708 1.330176 -0.8628521
v -13.24241 2.827735 -0.8628521
v -13.24471 2.827569 -10.18653
v -13.48501 2.861837 -10.18653
v -13.34919 2.821193 -0.8628521
v -13.34919 2.821195 -10.18653
v -13.48501 2.861835 -0.8628521
v -13.68125 3.187934 -10.18653
v -13.54371 3.076315 -0.8628521
v -13.52014 3.077106 -10.18653
v -14.28166 3.957569 -0.8628511
v -14.27763 3.963769 -10.18653
v -14.36386 4.562811 -10.18653
v -14.36386 4.562811 -0.8628511
v -14.47169 4.590578 -10.18653
v -14.47169 4.590576 -0.8628511
v -13.762 7.932578 -0.8628511
v -13.762 7.93258 -10.18653
v -13.73001 7.868447 -10.18653
v -13.73001 7.868446 -0.8628511
v -14.37676 7.209927 -0.8628511
v -14.4593 7.163071 -0.8628511
v -14.43428 7.174839 -10.18653
v -14.34787 7.475512 -10.18653
v -14.34787 7.47551 -0.8628511
v -14.05493 7.828989 -10.18653
v -14.05493 7.828988 -0.8628511
v -13.48313 8.033846 -10.18653
v -13.48313 8.033844 -0.8628511
v -13.47204 8.231983 -10.18653
v -13.47204 8.231981 -0.8628511
v -13.33161 8.265467 -10.18653
v -13.33161 8.265465 -0.8628511
v -13.33158 9.055501 -10.18653
v -13.33154 9.05916 -0.8628511
v -13.28319 9.537333 -10.18653
v -13.28318 9.537331 -0.8628511
v -13.07296 9.894144 -10.18653
v -13.07295 9.894142 -0.8628502
v -12.70982 10.21028 -10.18653
v -12.70982 10.21028 -0.8628502
v -11.99606 10.33951 -10.20061
v -11.99606 10.33951 -0.8802214
v 3.400959 0.767025 -0.8665061
v 3.059966 0.7179022 -10.19018
v 3.059966 0.7178998 -0.8665061
v 3.452284 0.78438 -10.19018
v 3.878963 1.019417 -0.8665061
v 3.878963 1.019419 -10.19018
v 4.123815 1.309544 -0.8665061
v 4.119688 1.312064 -10.19018
v 4.235032 2.809622 -10.19018
v 4.237327 2.809453 -0.8665061
v 4.477622 2.843719 -0.8665061
v 4.341802 2.803081 -10.19018
v 4.341802 2.803079 -0.8665061
v 4.477622 2.843721 -10.19018
v 4.673871 3.169819 -0.8665061
v 4.536321 3.058201 -10.19018
v 4.512755 3.058989 -0.8665061
v 5.274287 3.939456 -10.19018
v 5.270253 3.945657 -0.8665061
v 5.356486 4.54469 -0.8665061
v 5.356486 4.544692 -10.19018
v 5.464316 4.572455 -0.8665061
v 5.464316 4.572456 -10.19018
v 5.369403 7.191808 -10.19018
v 5.451941 7.144951 -10.19018
v 5.426919 7.156716 -0.8665051
v 5.340514 7.45739 -0.8665051
v 5.340514 7.457391 -10.19018
v 5.04758 7.810869 -0.8665051
v 5.04758 7.810871 -10.19018
v 4.754645 7.914461 -0.8665051
v 4.754645 7.914463 -10.19018
v 4.475776 8.015729 -0.8665051
v 4.722659 7.850331 -10.19018
v 4.722659 7.85033 -0.8665051
v 4.475776 8.015731 -10.19018
v 4.464686 8.213866 -0.8665051
v 4.464686 8.213868 -10.19018
v 4.32426 8.247351 -0.8665051
v 4.32426 8.247353 -10.19018
v 4.32423 9.037396 -0.8665051
v 4.324199 9.041039 -10.19018
v 4.27584 9.519217 -0.8665051
v 4.27584 9.519218 -10.19018
v 4.065612 9.87603 -0.8665051
v 4.065612 9.876032 -10.19018
v 3.702477 10.19217 -0.8665051
v 3.702477 10.19217 -10.19018
v 3.15763 10.33092 -0.8665051
v 3.15763 10.33092 -10.19018
v -13.24471 2.827567 -0.8628521
v -11.91253 0.7319322 -0.8628521
v -11.91253 0.7319331 -10.18653
v 4.237327 2.809455 -10.19018
v 2.905131 0.7138262 -10.19018
v 2.905131 0.7138238 -0.8665061
v 3.24 10.33 -10.21469
v 3.24 10.33 -0.8975925
v -11.99606 10.33951 -10.20061
v -11.99606 10.33951 -0.8802214
v 3.23 0.6700001 -0.8979039
v 3.23 0.6700549 -10.215
v -12.65815 0.6700001 -0.8979039
v -12.65815 0.6700549 -10.215

vn 0.9999999 -2.892953E-06 0
vn 0.9999999 -2.892953E-06 0
vn 0.9999999 -2.892953E-06 0
vn 0.9999999 -2.892953E-06 0
vn -0.9999999 2.892953E-06 0
vn -0.9999999 2.892953E-06 0
vn -0.9999999 2.892953E-06 0
vn -0.9999999 2.892953E-06 0
vn -0.290686 -0.9568185 -0.0001069156
vn -0.1335484 -0.9910421 0.0004062399
vn -0.087692 -0.9961476 -1.407464E-07
vn -0.392757 -0.9196423 -9.599704E-05
vn -0.5602793 -0.8283037 -0.0003599683
vn -0.6675134 -0.7445977 0.0001586574
vn -0.9806674 -0.1956819 0.0003453685
vn -0.9807897 -0.1950673 0.0004870614
vn -0.9970986 -0.07611915 0.0003547379
vn -0.9895167 -0.1444183 0.0002463899
vn -0.6950324 -0.7189784 -1.47057E-07
vn -0.1953283 -0.9807379 -2.005786E-07
vn -0.08063966 -0.9967433 -2.038472E-07
vn -0.8986273 -0.4387115 -0.001045224
vn -0.7634882 -0.6458205 0.00135601
vn -0.7832311 -0.6217269 0.002158473
vn -0.9044642 -0.4265471 -0.00140694
vn -0.8853285 -0.4649652 0.0009644875
vn -0.895682 -0.4446945 -0.0006832454
vn -0.9757714 -0.2187923 -0.0002506862
vn -0.9116591 -0.4109472 -3.04342E-08
vn -0.997728 -0.06736949 -5.317024E-09
vn -0.9999365 -0.01119151 -0.001328601
vn 0.06896884 0.9976188 1.949351E-07
vn -0.2255596 0.9742294 1.520599E-07
vn -0.1186131 0.9929405 1.117556E-07
vn -0.4523493 0.8918408 1.339202E-07
vn -0.9516792 0.3070848 0.002340871
vn -0.9993404 0.03621816 -0.002636377
vn -0.9992108 0.03971058 -0.0009767383
vn -0.9140072 0.4056951 0.001520196
vn -0.845279 0.5343252 8.326959E-08
vn -0.6779809 0.7350795 1.002589E-07
vn -0.537847 0.8430424 1.149778E-07
vn -0.723384 0.6904459 1.066044E-07
vn -0.9018626 0.4320229 8.838506E-08
vn -0.9352864 0.3538918 7.238178E-08
vn -0.672248 0.740326 1.514231E-07
vn -0.950259 0.3114608 6.370463E-08
vn -0.9962459 0.08656936 1.652387E-06
vn -0.9997246 0.02346648 -7.119739E-06
vn -0.9984795 0.05512289 -8.091316E-06
vn -0.9738863 0.2270364 -1.217152E-05
vn -0.9305866 0.3660716 1.026405E-06
vn -0.7957968 0.6055638 9.37765E-07
vn -0.7261471 0.6875395 6.462143E-07
vn -0.4674723 0.8840078 3.796691E-07
vn -0.3055574 0.9521737 1.561046E-07
vn -0.1781564 0.9840021 1.511522E-07
vn -0.1781571 0.9840021 1.006844E-07
vn 0.2906798 -0.9568204 0.0001068074
vn 0.1335445 -0.9910427 -0.0004066581
vn 0.08768997 -0.9961479 -2.545838E-07
vn 0.3927511 -0.9196448 9.587539E-05
vn 0.5602753 -0.8283064 0.0003599004
vn 0.6675121 -0.7445988 -0.0001589374
vn 0.9806657 -0.1956905 -0.0003450714
vn 0.9807878 -0.1950772 -0.0004868127
vn 0.9970979 -0.07612826 -0.0003543216
vn 0.9895159 -0.1444236 -0.0002459332
vn 0.6950244 -0.7189861 -1.633273E-07
vn 0.1953218 -0.9807392 -2.326347E-07
vn 0.08063709 -0.9967436 -2.393882E-07
vn 0.898622 -0.4387225 0.00104501
vn 0.7634858 -0.6458232 -0.001356189
vn 0.7832271 -0.6217319 -0.002158808
vn 0.9044585 -0.4265594 0.001406733
vn 0.8853254 -0.4649709 -0.000964608
vn 0.8956796 -0.4446996 0.0006832933
vn 0.9757698 -0.2187995 0.0002506636
vn 0.9116553 -0.4109556 -6.884028E-08
vn 0.9977277 -0.06737569 -1.099257E-08
vn 0.9999364 -0.01119758 0.001328551
vn 0.9516817 0.3070773 -0.002340735
vn 0.9993407 0.03621159 0.002636296
vn 0.999211 0.03970417 0.0009767115
vn 0.9140108 0.4056868 -0.001520047
vn 0.8452848 0.534316 8.035065E-08
vn 0.6779859 0.7350749 1.249868E-07
vn 0.5378487 0.8430414 1.724682E-07
vn 0.2255647 0.9742282 1.993094E-07
vn -0.06895881 0.9976195 1.949374E-07
vn 0.7233807 0.6904494 1.066047E-07
vn 0.4523493 0.8918409 1.339207E-07
vn 0.1186205 0.9929397 1.117544E-07
vn 0.901862 0.4320243 8.838569E-08
vn 0.9352908 0.3538802 7.238157E-08
vn 0.6722615 0.7403138 1.514226E-07
vn 0.9502642 0.311445 6.370185E-08
vn 0.9962465 0.08656216 -1.617953E-06
vn 0.9997246 0.02346473 7.078987E-06
vn 0.9984798 0.05512 8.333125E-06
vn 0.9738868 0.2270339 1.282005E-05
vn 0.9305905 0.3660618 7.499879E-08
vn 0.7958016 0.6055576 1.240144E-07
vn 0.7261497 0.6875366 1.406716E-07
vn 0.5186246 0.8550021 1.746699E-07
vn 0.3782515 0.9257028 1.891268E-07
vn 0.2467826 0.9690709 1.979017E-07
vn 0.2467826 0.9690709 1.982433E-07
vn 0.06089495 -0.9981442 -2.04173E-07
vn -0.02630887 -0.9996539 -1.278102E-07
vn -0.0263104 -0.9996538 -1.022498E-07
vn -0.06089772 -0.998144 -2.297357E-07
vn 0.02631575 -0.9996538 -2.55624E-07
vn 0.02631575 -0.9996538 -2.556246E-07
vn 0.0006242424 0.9999998 0
vn 0.0006242112 0.9999998 5.121652E-08
vn 0.0006242112 0.9999998 5.121652E-08
vn 0.00062418 0.9999998 1.02415E-07
vn 0 -1 -5.885554E-06
vn 0 -1 -5.885554E-06
vn 0 -1 -5.885554E-06
vn 0 -1 -5.885554E-06

vt -4.015022 -4.986495
vt -4.015022 -4.023233
vt -4.983872 -4.986495
vt -4.983872 -4.023233
vt 0.01612616 0.01350498
vt 0.01612616 0.9767675
vt 0.9849763 0.01350498
vt 0.9849763 0.9767675
vt -1.543057 2.427776
vt -1.543057 2.427776
vt -1.543057 2.427776
vt -1.543057 2.427776
vt -1.543057 2.427776
vt -1.543057 2.427776
vt -1.543057 2.427776
vt -1.543057 2.427776
vt -1.543057 2.427776
vt -1.543057 2.427776
vt -1.543057 2.427776
vt -1.543057 2.427776
vt -1.543057 2.427776
vt -1.543057 2.427776
vt -1.543057 2.427776
vt -1.543057 2.427776
vt -1.543057 2.427776
vt -1.543057 2.427776
vt -1.543057 2.427776
vt -1.543057 2.427776
vt -1.543057 2.427776
vt -1.543057 2.427776
vt -1.543057 2.427776
vt -1.543057 2.427776
vt -1.543057 2.427776
vt -1.543057 2.427776
vt -1.543057 2.427776
vt -1.543057 2.427776
vt -1.543057 2.427776
vt -1.543057 2.427776
vt -1.543057 2.427776
vt -1.543057 2.427776
vt -1.543057 2.427776
vt -1.543057 2.427776
vt -1.543057 2.427776
vt -1.543057 2.427776
vt -1.543057 2.427776
vt -1.543057 2.427776
vt -1.543057 2.427776
vt -1.543057 2.427776
vt -1.543057 2.427776
vt -1.543057 2.427776
vt -1.543057 2.427776
vt -1.543057 2.427776
vt -1.543057 2.427776
vt -1.543057 2.427776
vt -1.543057 2.427776
vt -1.543057 2.427776
vt -1.543057 2.427776
vt -1.543057 2.427776
vt -1.543057 2.427776
vt -1.543057 2.427776
vt -1.543057 2.427776
vt -1.543057 2.427776
vt -1.543057 2.427776
vt -1.543057 2.427776
vt -1.543057 2.427776
vt -1.543057 2.427776
vt -1.543057 2.427776
vt -1.543057 2.427776
vt -1.543057 2.427776
vt -1.543057 2.427776
vt -1.543057 2.427776
vt -1.543057 2.427776
vt -1.543057 2.427776
vt -1.543057 2.427776
vt -1.543057 2.427776
vt -1.543057 2.427776
vt -1.543057 2.427776
vt -1.543057 2.427776
vt -1.543057 2.427776
vt -1.543057 2.427776
vt -1.543057 2.427776
vt -1.543057 2.427776
vt -1.543057 2.427776
vt -1.543057 2.427776
vt -1.543057 2.427776
vt -1.543057 2.427776
vt -1.543057 2.427776
vt -1.543057 2.427776
vt -1.543057 2.427776
vt -1.543057 2.427776
vt -1.543057 2.427776
vt -1.543057 2.427776
vt -1.543057 2.427776
vt -1.543057 2.427776
vt -1.543057 2.427776
vt -1.543057 2.427776
vt -1.543057 2.427776
vt -1.543057 2.427776
vt -1.543057 2.427776
vt -1.543057 2.427776
vt -1.543057 2.427776
vt -1.543057 2.427776
vt -1.543057 2.427776
vt -1.543057 2.427776
vt -1.543057 2.427776
vt -1.543057 2.427776
vt -1.543057 2.427776
vt -1.543057 2.427776
vt -1.543057 2.427776
vt -1.543057 2.427776
vt -1.543057 2.427776
vt -1.543057 2.427776
vt -1.543057 2.427776
vt -1.543057 2.427776
vt -1.543057 2.427776
vt -1.543057 2.427776
vt -1.543057 2.427776
vt -1.543057 2.427776
vt -1.543057 2.427776
vt -1.543057 2.427776
vt -1.543057 2.427776
vt -1.543057 2.427776

g HousingAndInnderWalls_0
usemtl CladingWall
f 1/1/1 2/2/2 4/4/4 3/3/3
f 7/7/7 8/8/8 6/6/6 5/5/5

g HousingAndInnderWalls_1
usemtl CladingWall
f 25/25/25 24/24/24 23/23/23
f 38/38/38 37/37/37 36/36/36
f 75/75/75 74/74/74 73/73/73
f 84/84/84 83/83/83 82/82/82
f 11/11/11 10/10/10 9/9/9
f 9/9/9 10/10/10 12/12/12
f 9/9/9 12/12/12 13/13/13
f 13/13/13 12/12/12 14/14/14
f 13/13/13 14/14/14 15/15/15
f 15/15/15 14/14/14 16/16/16
f 15/15/15 16/16/16 17/17/17
f 15/15/15 17/17/17 18/18/18
f 21/21/21 20/20/20 19/19/19
f 19/19/19 20/20/20 22/22/22
f 19/19/19 22/22/22 25/25/25
f 25/25/25 22/22/22 24/24/24
f 23/23/23 24/24/24 26/26/26
f 23/23/23 26/26/26 27/27/27
f 27/27/27 26/26/26 28/28/28
f 28/28/28 26/26/26 29/29/29
f 28/28/28 29/29/29 30/30/30
f 30/30/30 29/29/29 31/31/31
f 30/30/30 31/31/31 38/38/38
f 38/38/38 31/31/31 37/37/37
f 34/34/34 33/33/33 32/32/32
f 35/35/35 34/34/34 32/32/32
f 38/38/38 36/36/36 39/39/39
f 39/39/39 36/36/36 40/40/40
f 39/39/39 40/40/40 41/41/41
f 40/40/40 42/42/42 41/41/41
f 41/41/41 42/42/42 33/33/33
f 42/42/42 32/32/32 33/33/33
f 34/34/34 35/35/35 43/43/43
f 43/43/43 35/35/35 44/44/44
f 43/43/43 44/44/44 45/45/45
f 45/45/45 44/44/44 46/46/46
f 45/45/45 46/46/46 47/47/47
f 47/47/47 46/46/46 48/48/48
f 47/47/47 48/48/48 49/49/49
f 49/49/49 48/48/48 50/50/50
f 49/49/49 50/50/50 51/51/51
f 51/51/51 50/50/50 52/52/52
f 51/51/51 52/52/52 53/53/53
f 53/53/53 52/52/52 54/54/54
f 53/53/53 54/54/54 55/55/55
f 55/55/55 54/54/54 56/56/56
f 55/55/55 56/56/56 57/57/57
f 57/57/57 56/56/56 58/58/58
f 61/61/61 60/60/60 59/59/59
f 59/59/59 60/60/60 62/62/62
f 59/59/59 62/62/62 63/63/63
f 63/63/63 62/62/62 64/64/64
f 63/63/63 64/64/64 65/65/65
f 65/65/65 64/64/64 66/66/66
f 65/65/65 66/66/66 67/67/67
f 65/65/65 67/67/67 68/68/68
f 71/71/71 70/70/70 69/69/69
f 69/69/69 70/70/70 72/72/72
f 69/69/69 72/72/72 75/75/75
f 75/75/75 72/72/72 74/74/74
f 73/73/73 74/74/74 76/76/76
f 73/73/73 76/76/76 77/77/77
f 77/77/77 76/76/76 78/78/78
f 78/78/78 76/76/76 79/79/79
f 78/78/78 79/79/79 80/80/80
f 80/80/80 79/79/79 81/81/81
f 80/80/80 81/81/81 84/84/84
f 84/84/84 81/81/81 83/83/83
f 84/84/84 82/82/82 85/85/85
f 85/85/85 82/82/82 86/86/86
f 85/85/85 86/86/86 87/87/87
f 86/86/86 88/88/88 87/87/87
f 87/87/87 88/88/88 89/89/89
f 88/88/88 90/90/90 89/89/89
f 93/93/93 92/92/92 91/91/91
f 91/91/91 92/92/92 94/94/94
f 91/91/91 94/94/94 95/95/95
f 95/95/95 94/94/94 96/96/96
f 95/95/95 96/96/96 97/97/97
f 97/97/97 96/96/96 98/98/98
f 97/97/97 98/98/98 99/99/99
f 99/99/99 98/98/98 100/100/100
f 99/99/99 100/100/100 101/101/101
f 101/101/101 100/100/100 102/102/102
f 101/101/101 102/102/102 103/103/103
f 103/103/103 102/102/102 104/104/104
f 103/103/103 104/104/104 105/105/105
f 105/105/105 104/104/104 106/106/106
f 105/105/105 106/106/106 107/107/107
f 107/107/107 106/106/106 108/108/108
f 21/21/21 18/18/18 109/109/109
f 20/20/20 21/21/21 109/109/109
f 11/11/11 111/111/111 110/110/110
f 10/10/10 11/11/11 110/110/110
f 93/93/93 89/89/89 90/90/90
f 92/92/92 93/93/93 90/90/90
f 71/71/71 68/68/68 112/112/112
f 70/70/70 71/71/71 112/112/112
f 61/61/61 114/114/114 113/113/113
f 60/60/60 61/61/61 113/113/113
f 117/117/117 116/116/116 115/115/115
f 117/117/117 118/118/118 116/116/116
f 121/121/121 120/120/120 119/119/119
f 121/121/121 122/122/122 120/120/120

