# Blender v2.79 (sub 0) OBJ File: ''
# www.blender.org
mtllib ChainCenter.mtl
o Chain
v -1.353149 2.171988 -0.499765
v -1.269548 2.171931 -0.084319
v -1.040215 2.171945 0.241749
v -1.120551 0.593162 0.151518
v -0.898611 0.379852 0.328664
v -0.653208 2.171932 0.438667
v -0.298538 2.171886 0.455336
v -0.428040 -0.110841 0.462486
v -0.178729 0.155546 0.427475
v 0.008838 2.171931 0.350166
v 0.277929 2.171914 0.140428
v 0.457812 2.171932 -0.227402
v 0.477313 2.171946 -0.579537
v 0.474134 0.819461 -0.569785
v 0.333329 2.171952 -0.964126
v 0.253820 0.594069 -1.053565
v -0.051065 2.171930 -1.287606
v -0.169590 0.168897 -1.328382
v -0.450672 2.171929 -1.366251
v -0.868382 2.171953 -1.258176
v -0.941076 0.417079 -1.210166
v -1.204583 2.171933 -0.945214
v -1.269145 -2.365499 -0.068111
v -1.346474 -2.365492 -0.525161
v -1.221531 -0.882009 0.003523
v -1.075528 -1.032693 0.192902
v -0.984758 -2.365520 0.284972
v -1.138225 -1.027517 0.119418
v -1.153203 -1.028250 0.101570
v -0.879000 -1.033702 0.339920
v -0.971526 -1.032171 0.278188
v -0.581721 -2.365489 0.456042
v -0.501167 -1.033063 0.453598
v -0.231722 -0.313557 0.435588
v -0.208256 -2.365482 0.438664
v 0.142993 -2.365508 0.269674
v 0.168767 -0.689815 0.237990
v 0.326460 -0.853637 0.054889
v 0.397536 -2.365458 -0.058779
v 0.444886 -0.966780 -0.190114
v 0.488174 -2.365485 -0.498470
v 0.481461 -1.003057 -0.436335
v 0.340427 -2.365460 -0.952416
v 0.132308 -0.661676 -1.166907
v 0.085158 -2.365482 -1.202884
v -0.207770 -2.365483 -1.338418
v -0.365350 -1.094514 -1.358389
v -0.741464 -2.365499 -1.322355
v -0.639288 -1.036567 -1.337874
v -1.182245 -2.365494 -0.984627
v -1.210127 -0.869289 -0.934087
v -1.306143 -0.967606 -0.706254
v -1.355071 -0.998495 -0.466178
v -2.731457 -0.997300 -0.243682
v -1.306343 -0.967337 -0.182928
v -2.731435 -0.813063 0.124111
v -1.100671 -0.756503 0.171672
v -0.956855 -0.607426 0.300366
v -2.731470 -0.428617 0.414387
v -0.675231 -0.343148 0.427938
v -2.731423 0.017111 0.458982
v -0.626841 0.113451 0.441368
v -2.731442 0.425053 0.305824
v -2.731443 0.701209 -0.005014
v -1.232327 0.716095 -0.018416
v -2.731410 0.810396 -0.344367
v -1.330293 0.807806 -0.284137
v -1.338709 0.817266 -0.596346
v -2.731465 0.764793 -0.764766
v -1.228734 0.701017 -0.884198
v -2.731443 0.579749 -1.059642
v -1.103103 0.583440 -1.066657
v -2.731608 0.286218 -1.308773
v -0.724958 0.185381 -1.316841
v -0.575297 0.025187 -1.355532
v -2.731436 -0.158621 -1.363394
v -0.663862 -0.324665 -1.337092
v -2.731446 -0.463888 -1.290241
v -0.956555 -0.616753 -1.200710
v -2.731416 -0.786619 -1.060819
v -1.382156 -0.792255 -1.032772
v -1.377261 -0.963312 -0.633773
v -2.731509 -0.973352 -0.738039
v 1.862265 -1.010936 -0.400761
v 1.862260 -0.932454 -0.063381
v 1.862261 -0.656958 0.279187
v -0.054537 -0.471456 0.376382
v 1.862267 -0.351084 0.430861
v 0.444454 -0.095034 0.457023
v 1.862236 0.079892 0.453258
v 0.050374 0.383731 0.326684
v 1.862264 0.489503 0.254569
v 0.228186 0.568021 0.176849
v 1.862261 0.756303 -0.113222
v 0.354840 0.697834 0.013758
v 0.461104 0.798549 -0.238437
v 1.862271 0.812970 -0.538486
v 1.862270 0.723798 -0.844050
v 0.392160 0.734731 -0.841289
v 1.862279 0.518973 -1.130123
v 0.071833 0.411665 -1.213180
v 1.862255 0.114293 -1.343009
v -0.370273 -0.107584 -1.362507
v 1.862248 -0.311631 -1.341184
v -0.145586 -0.354882 -1.318081
v 0.009564 -0.534492 -1.247107
v 1.862265 -0.699773 -1.147586
v 0.348399 -0.871590 -0.930917
v 1.862254 -0.970313 -0.747988
v 0.459144 -0.981775 -0.647593
v -1.355213 -0.998610 -0.453521
v -1.377261 -0.963312 -0.633773
v -1.352599 -0.991481 -0.571043
v -1.352599 -0.991481 -0.571043
vt 0.065048 2.332353
vt 0.065048 2.332353
vt 0.065048 2.332353
vt 0.065048 2.332353
vt 0.065048 2.332353
vt 0.065048 2.332353
vt 0.065048 2.332353
vt 0.065048 2.332353
vt 0.065048 2.332353
vt 0.065048 2.332353
vt 0.065048 2.332353
vt 0.065048 2.332353
vt 0.065048 2.332353
vt 0.065048 2.332353
vt 0.065048 2.332353
vt 0.065048 2.332353
vt 0.065048 2.332353
vt 0.065048 2.332353
vt 0.065048 2.332353
vt 0.065048 2.332353
vt 0.065048 2.332353
vt 0.065048 2.332353
vt 0.065048 2.332353
vt 0.065048 2.332353
vt 0.065048 2.332353
vt 0.065048 2.332353
vt 0.065048 2.332353
vt 0.065048 2.332353
vt 0.065048 2.332353
vt 0.065048 2.332353
vt 0.065048 2.332353
vt 0.065048 2.332353
vt 0.065048 2.332353
vt 0.065048 2.332353
vt 0.065048 2.332353
vt 0.065048 2.332353
vt 0.065048 2.332353
vt 0.065048 2.332353
vt 0.065048 2.332353
vt 0.065048 2.332353
vt 0.065048 2.332353
vt 0.065048 2.332353
vt 0.065048 2.332353
vt 0.065048 2.332353
vt 0.065048 2.332353
vt 0.065048 2.332353
vt 0.065048 2.332353
vt 0.065048 2.332353
vt 0.065048 2.332353
vt 0.065048 2.332353
vt 0.065048 2.332353
vt 0.065048 2.332353
vt 0.065048 2.332353
vt 0.065048 2.332353
vt 0.065048 2.332353
vt 0.065048 2.332353
vt 0.065048 2.332353
vt 0.065048 2.332353
vt 0.065048 2.332353
vt 0.065048 2.332353
vt 0.065048 2.332353
vt 0.065048 2.332353
vt 0.065048 2.332353
vt 0.065048 2.332353
vt 0.065048 2.332353
vt 0.065048 2.332353
vt 0.065048 2.332353
vt 0.065048 2.332353
vt 0.065048 2.332353
vt 0.065048 2.332353
vt 0.065048 2.332353
vt 0.065048 2.332353
vt 0.065048 2.332353
vt 0.065048 2.332353
vt 0.065048 2.332353
vt 0.065048 2.332353
vt 0.065048 2.332353
vt 0.065048 2.332353
vt 0.065048 2.332353
vt 0.065048 2.332353
vt 0.065048 2.332353
vt 0.065048 2.332353
vt 0.065048 2.332353
vt 0.065048 2.332353
vt 0.065048 2.332353
vt 0.065048 2.332353
vt 0.065048 2.332353
vt 0.065048 2.332353
vt 0.065048 2.332353
vt 0.065048 2.332353
vt 0.065048 2.332353
vt 0.065048 2.332353
vt 0.065048 2.332353
vt 0.065048 2.332353
vt 0.065048 2.332353
vt 0.065048 2.332353
vt 0.065048 2.332353
vt 0.065048 2.332353
vt 0.065048 2.332353
vt 0.065048 2.332353
vt 0.065048 2.332353
vt 0.065048 2.332353
vt 0.065048 2.332353
vt 0.065048 2.332353
vt 0.065048 2.332353
vt 0.065048 2.332353
vt 0.065048 2.332353
vt 0.065048 2.332353
vt 0.065048 2.332353
vt 0.065048 2.332353
vt 0.065048 2.332353
vt 0.065048 2.332353
vt 0.065048 2.332353
vt 0.065048 2.332353
vn -0.9215 -0.0085 0.3882
vn -0.9978 -0.0142 -0.0652
vn -0.7244 0.6377 0.2619
vn -0.5758 0.5232 0.6283
vn -0.3869 0.4060 0.8279
vn -0.6569 -0.0037 0.7540
vn -0.2324 0.2399 0.9426
vn -0.2717 0.0015 0.9624
vn -0.0932 0.0782 0.9926
vn 0.0998 0.0035 0.9950
vn -0.0122 -0.0078 0.9999
vn 0.1236 0.0745 0.9895
vn 0.4795 -0.0070 0.8775
vn 0.7817 -0.0107 0.6235
vn 0.4176 0.3845 0.8233
vn 0.5338 0.4899 0.6892
vn 0.6631 0.6615 0.3505
vn 0.9692 -0.0026 0.2464
vn 0.9920 -0.0047 -0.1260
vn 0.7042 0.6744 -0.2221
vn 0.5914 0.5502 -0.5895
vn 0.8178 -0.0120 -0.5753
vn 0.3839 0.4318 -0.8162
vn 0.2862 0.2444 -0.9265
vn 0.3940 0.0096 -0.9190
vn 0.1281 0.0809 -0.9885
vn 0.0050 0.0106 -0.9999
vn -0.4423 0.0114 -0.8968
vn -0.1010 0.1579 -0.9823
vn -0.2496 0.2686 -0.9304
vn -0.4183 0.3736 -0.8279
vn -0.8555 0.0050 -0.5177
vn -0.5267 0.5813 -0.6202
vn -0.7696 0.6054 -0.2032
vn -0.6441 -0.7434 0.1804
vn -0.9174 -0.0110 0.3977
vn -0.6302 -0.6450 0.4323
vn -0.9961 -0.0060 -0.0880
vn -0.5102 -0.5343 0.6739
vn -0.7043 0.0060 0.7099
vn -0.7642 -0.0078 0.6449
vn -0.6084 -0.0074 0.7936
vn -0.8026 0.0328 0.5956
vn -0.5961 0.0101 0.8028
vn -0.5014 -0.0025 0.8652
vn -0.1633 -0.0261 0.9862
vn -0.0885 -0.0936 0.9917
vn 0.0126 -0.0081 0.9999
vn 0.0935 -0.0787 0.9925
vn 0.2356 0.0005 0.9719
vn 0.1958 -0.2226 0.9550
vn 0.6162 -0.0015 0.7876
vn 0.3096 -0.3470 0.8853
vn 0.5056 -0.4813 0.7160
vn 0.9056 -0.0321 0.4229
vn 0.6492 -0.6426 0.4069
vn 0.9985 -0.0086 -0.0539
vn 0.6995 -0.7146 0.0113
vn 0.6582 -0.6602 -0.3618
vn 0.8450 -0.0067 -0.5347
vn 0.5028 -0.5060 -0.7008
vn 0.5539 -0.0033 -0.8326
vn 0.3113 -0.3393 -0.8877
vn 0.1939 0.0075 -0.9810
vn 0.1168 -0.1138 -0.9866
vn 0.0011 -0.0254 -0.9997
vn -0.3242 -0.0045 -0.9460
vn -0.2222 -0.0093 -0.9750
vn -0.3082 -0.2662 -0.9133
vn -0.8073 -0.0039 -0.5901
vn -0.5631 -0.5308 -0.6334
vn -0.8201 -0.3608 -0.4442
vn -0.9484 -0.2812 -0.1468
vn -0.0023 -0.9725 0.2330
vn -0.0050 -0.7667 0.6420
vn -0.3411 -0.4656 0.8166
vn -0.2639 -0.2723 0.9253
vn -0.0049 -0.3319 0.9433
vn -0.0069 0.0964 0.9953
vn -0.0070 0.5601 0.8284
vn -0.0100 0.8640 0.5033
vn -0.0141 0.9938 0.1102
vn -0.0056 0.9445 -0.3285
vn -0.0051 0.7489 -0.6627
vn -0.0165 0.2759 -0.9610
vn -0.0331 0.0171 -0.9993
vn 0.0094 -0.0468 -0.9989
vn -0.0701 -0.0545 -0.9960
vn -0.0045 -0.4332 -0.9013
vn -0.0521 -0.7427 -0.6676
vn -0.0026 -0.8180 -0.5752
vn -0.3619 -0.9022 -0.2348
vn 0.0237 -0.9511 -0.3080
vn -0.0014 -0.9981 0.0620
vn -0.0051 -0.8977 0.4406
vn -0.0079 -0.6250 0.7806
vn 0.0045 -0.2379 0.9713
vn 0.0168 -0.0068 0.9998
vn 0.0269 0.1984 0.9797
vn 0.2807 0.2439 0.9283
vn -0.0009 0.6468 0.7626
vn 0.0142 0.9458 0.3245
vn 0.0118 0.9984 -0.0549
vn 0.0096 0.8992 -0.4374
vn 0.0084 0.6693 -0.7429
vn 0.0082 0.2470 -0.9690
vn -0.0114 -0.0091 -0.9999
vn 0.0006 -0.2304 -0.9731
vn -0.5184 -0.7362 -0.4350
vn 0.0064 -0.6598 -0.7514
vn 0.0023 -0.9411 -0.3380
vn -0.6784 -0.0103 0.7346
vn -0.3750 -0.8975 -0.2320
vn -0.4027 -0.8962 -0.1863
vn -0.3787 -0.9250 -0.0307
vn -0.3864 -0.9016 -0.1943
vn 0.0990 -0.9877 -0.1206
usemtl Default_Prototype.005
s 1
f 2/1/1 1/2/2 67/3/3
f 2/1/1 67/3/3 65/4/4
f 65/4/4 4/5/5 3/6/6
f 2/1/1 65/4/4 3/6/6
f 3/6/6 4/5/5 5/7/7
f 6/8/8 3/6/6 5/7/7
f 6/8/8 5/7/7 62/9/9
f 7/10/10 6/8/8 62/9/9
f 7/10/10 8/11/11 9/12/12
f 7/10/10 62/9/9 8/11/11
f 10/13/13 7/10/10 9/12/12
f 11/14/14 10/13/13 93/15/15
f 11/14/14 93/15/15 95/16/16
f 11/14/14 95/16/16 96/17/17
f 12/18/18 11/14/14 96/17/17
f 13/19/19 12/18/18 96/17/17
f 13/19/19 96/17/17 14/20/20
f 14/20/20 99/21/21 15/22/22
f 13/19/19 14/20/20 15/22/22
f 15/22/22 99/21/21 16/23/23
f 15/22/22 16/23/23 101/24/24
f 17/25/25 15/22/22 101/24/24
f 17/25/25 101/24/24 18/26/26
f 17/25/25 18/26/26 19/27/27
f 20/28/28 19/27/27 74/29/29
f 20/28/28 74/29/29 21/30/30
f 20/28/28 21/30/30 72/31/31
f 22/32/32 20/28/28 72/31/31
f 22/32/32 72/31/31 70/33/33
f 70/33/33 68/34/34 1/2/2
f 22/32/32 70/33/33 1/2/2
f 68/34/34 67/3/3 1/2/2
f 111/35/35 23/36/36 55/37/37
f 111/35/35 24/38/38 23/36/36
f 25/39/39 55/37/37 23/36/36
f 26/40/40 28/41/41 27/42/42
f 28/41/41 29/43/43 27/42/42
f 27/42/42 29/43/43 23/36/36
f 25/39/39 23/36/36 29/43/43
f 31/44/44 27/42/42 30/45/45
f 26/40/40 27/42/42 31/44/44
f 30/45/45 32/46/46 60/47/47
f 32/46/46 30/45/45 27/42/42
f 33/48/48 32/46/46 34/49/49
f 33/48/48 60/47/47 32/46/46
f 34/49/49 35/50/50 87/51/51
f 34/49/49 32/46/46 35/50/50
f 36/52/52 87/51/51 35/50/50
f 37/53/53 87/51/51 36/52/52
f 38/54/54 37/53/53 39/55/55
f 39/55/55 37/53/53 36/52/52
f 40/56/56 38/54/54 39/55/55
f 40/56/56 39/55/55 41/57/57
f 42/58/58 40/56/56 41/57/57
f 110/59/59 42/58/58 41/57/57
f 110/59/59 41/57/57 43/60/60
f 108/61/61 110/59/59 43/60/60
f 45/62/62 44/63/63 43/60/60
f 44/63/63 108/61/61 43/60/60
f 46/64/64 105/65/65 45/62/62
f 45/62/62 105/65/65 44/63/63
f 105/65/65 46/64/64 47/66/66
f 47/66/66 46/64/64 48/67/67
f 49/68/68 47/66/66 48/67/67
f 49/68/68 48/67/67 79/69/69
f 79/69/69 50/70/70 51/71/71
f 79/69/69 48/67/67 50/70/70
f 52/72/72 24/38/38 53/73/73
f 52/72/72 50/70/70 24/38/38
f 51/71/71 50/70/70 52/72/72
f 53/73/73 24/38/38 111/35/35
f 54/74/74 111/35/35 55/37/37
f 54/74/74 55/37/37 25/39/39
f 56/75/75 54/74/74 25/39/39
f 56/75/75 57/76/76 58/77/77
f 56/75/75 25/39/39 57/76/76
f 59/78/78 56/75/75 58/77/77
f 59/78/78 58/77/77 60/47/47
f 59/78/78 60/47/47 8/11/11
f 61/79/79 59/78/78 8/11/11
f 61/79/79 8/11/11 62/9/9
f 63/80/80 61/79/79 62/9/9
f 63/80/80 62/9/9 5/7/7
f 63/80/80 5/7/7 4/5/5
f 64/81/81 63/80/80 4/5/5
f 64/81/81 4/5/5 65/4/4
f 64/81/81 65/4/4 67/3/3
f 66/82/82 64/81/81 67/3/3
f 66/82/82 68/34/34 69/83/83
f 66/82/82 67/3/3 68/34/34
f 68/34/34 70/33/33 69/83/83
f 71/84/84 70/33/33 72/31/31
f 69/83/83 70/33/33 71/84/84
f 71/84/84 72/31/31 21/30/30
f 73/85/85 71/84/84 21/30/30
f 73/85/85 21/30/30 74/29/29
f 73/85/85 74/29/29 75/86/86
f 76/87/87 73/85/85 75/86/86
f 76/87/87 75/86/86 77/88/88
f 78/89/89 76/87/87 77/88/88
f 78/89/89 77/88/88 79/69/69
f 80/90/90 78/89/89 79/69/69
f 80/90/90 79/69/69 81/91/91
f 80/90/90 81/91/91 82/92/92
f 83/93/93 80/90/90 82/92/92
f 83/93/93 82/92/92 111/35/35
f 54/74/74 83/93/93 111/35/35
f 40/56/56 42/58/58 84/94/94
f 85/95/95 40/56/56 84/94/94
f 38/54/54 40/56/56 85/95/95
f 38/54/54 85/95/95 86/96/96
f 37/53/53 38/54/54 86/96/96
f 87/51/51 37/53/53 86/96/96
f 87/51/51 86/96/96 88/97/97
f 34/49/49 87/51/51 88/97/97
f 88/97/97 89/98/98 34/49/49
f 90/99/99 89/98/98 88/97/97
f 9/12/12 89/98/98 90/99/99
f 91/100/100 9/12/12 90/99/99
f 92/101/101 91/100/100 90/99/99
f 92/101/101 93/15/15 91/100/100
f 93/15/15 94/102/102 95/16/16
f 92/101/101 94/102/102 93/15/15
f 96/17/17 95/16/16 94/102/102
f 96/17/17 94/102/102 97/103/103
f 14/20/20 96/17/17 97/103/103
f 14/20/20 97/103/103 98/104/104
f 99/21/21 14/20/20 98/104/104
f 98/104/104 16/23/23 99/21/21
f 98/104/104 100/105/105 16/23/23
f 101/24/24 16/23/23 100/105/105
f 101/24/24 100/105/105 102/106/106
f 18/26/26 101/24/24 102/106/106
f 18/26/26 102/106/106 103/107/107
f 103/107/107 102/106/106 104/108/108
f 105/65/65 103/107/107 104/108/108
f 105/65/65 104/108/108 106/109/109
f 106/109/109 104/108/108 107/110/110
f 44/63/63 106/109/109 107/110/110
f 108/61/61 44/63/63 107/110/110
f 108/61/61 107/110/110 109/111/111
f 109/111/111 110/59/59 108/61/61
f 109/111/111 42/58/58 110/59/59
f 84/94/94 42/58/58 109/111/111
f 57/76/76 25/39/39 29/43/43
f 19/27/27 103/107/107 75/86/86
f 103/107/107 47/66/66 77/88/88
f 103/107/107 105/65/65 47/66/66
f 57/76/76 29/43/43 26/40/112
f 19/27/27 75/86/86 74/29/29
f 19/27/27 18/26/26 103/107/107
f 57/76/76 26/40/112 30/45/45
f 30/45/45 58/77/77 57/76/76
f 58/77/77 30/45/45 60/47/47
f 8/11/11 60/47/47 33/48/48
f 10/13/13 9/12/12 91/100/100
f 93/15/15 10/13/13 91/100/100
f 8/11/11 33/48/48 34/49/49
f 106/109/109 44/63/63 105/65/65
f 49/68/68 77/88/88 47/66/66
f 77/88/88 49/68/68 79/69/69
f 81/91/91 51/71/71 82/92/92
f 112/112/113 113/113/114 111/35/115
f 82/92/92 52/72/72 114/114/116
f 81/91/91 79/69/69 51/71/71
f 75/86/86 103/107/107 77/88/88
f 82/92/92 51/71/71 52/72/72
f 113/113/117 52/72/72 53/73/73
f 8/11/11 34/49/49 89/98/98
f 9/12/12 8/11/11 89/98/98
