ply
format ascii 1.0
comment Created by Blender 2.79 (sub 0) - www.blender.org, source file: ''
element vertex 124
property float x
property float y
property float z
property float nx
property float ny
property float nz
property float s
property float t
element face 94
property list uchar uint vertex_indices
end_header
-12.408363 10.186530 0.785137 -0.309000 0.000427 -0.951048 -4.731380 4.618781
-12.067360 10.186530 0.736008 -0.142582 0.000000 -0.989776 -4.804617 4.618781
-12.067360 0.862852 0.736007 -0.166478 -0.000885 -0.986023 -4.804617 -4.618773
-12.459667 0.862852 0.802485 -0.329661 -0.000427 -0.944090 -4.710967 -4.618773
-12.886360 10.186530 1.037531 -0.627308 0.000427 -0.778741 -4.476776 4.618781
-12.886360 0.862852 1.037529 -0.638691 -0.000244 -0.769433 -4.476776 -4.618773
-13.131211 10.186530 1.327663 -0.925596 -0.000122 -0.378460 -4.174977 4.618781
-13.127081 0.862852 1.330176 -0.927671 -0.000488 -0.373302 -4.173406 -4.618773
-13.242411 0.862852 2.827735 -0.997040 -0.000427 -0.076632 -2.676090 -4.618773
-13.244710 10.186530 2.827569 -0.997131 -0.000244 -0.075442 -2.676089 4.618781
-13.485010 10.186530 2.861837 -0.751183 0.000000 -0.660054 -2.634071 4.618781
-13.349190 10.186530 2.821195 -0.286660 0.000000 -0.958007 -2.679082 4.618781
-13.349190 0.862852 2.821193 -0.286660 0.000000 -0.958007 -2.679082 -4.618773
-13.485010 0.862852 2.861835 -0.715934 0.001373 -0.698141 -2.634071 -4.618773
-13.520140 10.186529 3.077106 -0.844325 0.000824 -0.535813 -2.417778 4.618781
-13.543706 0.862852 3.076315 -0.885098 -0.000549 -0.465377 -2.406565 -4.618773
-13.681252 10.186529 3.187934 -0.688345 0.000946 -0.725333 -2.298602 4.618781
-14.281664 0.862851 3.957569 -0.915128 -0.001709 -0.403088 -1.506992 -4.618773
-14.277630 10.186529 3.963769 -0.921415 0.000641 -0.388562 -1.504910 4.618781
-14.363860 10.186529 4.562811 -0.744682 0.000275 -0.667379 -0.905573 4.618781
-14.363860 0.862851 4.562811 -0.747246 0.000000 -0.664541 -0.905573 -4.618773
-14.471690 10.186529 4.590578 -0.794763 0.000000 -0.606861 -0.874336 4.618781
-14.471690 0.862851 4.590576 -0.792322 0.001404 -0.610065 -0.874336 -4.618773
-14.434277 10.186529 7.174839 -0.988952 -0.002197 0.148167 1.709243 4.618781
-14.459300 0.862851 7.163071 -0.863369 0.001679 0.504562 1.696414 -4.618773
-13.762000 0.862851 7.932578 0.894833 0.000000 0.446364 -2.296087 -4.618773
-13.730010 0.862851 7.868447 0.894833 0.000000 0.446364 -2.224423 -4.618773
-13.730010 10.186529 7.868448 0.894833 0.000000 0.446364 -2.224423 4.618781
-13.762000 10.186529 7.932580 0.894833 0.000000 0.446364 -2.296087 4.618781
-14.376760 0.862851 7.209927 -0.835719 0.000061 0.549150 1.740577 -4.618773
-14.347870 10.186529 7.475512 -0.884945 -0.002441 0.465651 2.005087 4.618781
-14.347870 0.862851 7.475510 -0.920988 0.000000 0.389569 2.005087 -4.618773
-14.054930 10.186529 7.828989 -0.572314 0.000000 0.820002 2.348910 4.618781
-14.054930 0.862851 7.828988 -0.572314 0.000000 0.820002 2.348910 -4.618773
-13.762000 10.186529 7.932580 -0.333384 0.000000 0.942778 2.442976 4.618781
-13.762000 0.862851 7.932578 -0.333384 0.000000 0.942778 2.442976 -4.618773
-13.483130 10.186529 8.033846 -0.868679 0.000000 0.495315 2.535174 4.618781
-13.730010 10.186529 7.868448 -0.556566 0.000000 0.830775 2.377846 4.618781
-13.730010 0.862851 7.868447 -0.556566 0.000000 0.830775 2.377846 -4.618773
-13.483130 0.862851 8.033844 -0.868679 0.000000 0.495315 2.535174 -4.618773
-13.472040 10.186529 8.231983 -0.767205 0.000000 0.641377 2.732850 4.618781
-13.472040 0.862851 8.231981 -0.767205 0.000000 0.641377 2.732850 -4.618773
-13.331610 10.186529 8.265467 -0.784814 0.000000 0.619709 2.761776 4.618781
-13.331610 0.862851 8.265465 -0.784783 0.000000 0.619709 2.761776 -4.618773
-13.331576 10.186528 9.055501 -0.998718 0.000000 0.050020 3.551326 4.618781
-13.331545 0.862851 9.059160 -0.998718 0.000000 0.050417 3.554946 -4.618773
-13.283190 10.186528 9.537333 -0.950377 0.000000 0.311014 4.031411 4.618781
-13.283180 0.862851 9.537331 -0.950285 0.000000 0.311350 4.031411 -4.618773
-13.072960 10.186528 9.894144 -0.769036 0.000000 0.639180 4.381240 4.618781
-13.072950 0.862850 9.894142 -0.769036 0.000000 0.639180 4.381240 -4.618773
-12.709820 10.186528 10.210282 -0.464278 0.000000 0.885678 4.685477 4.618781
-12.709820 0.862850 10.210280 -0.464278 0.000000 0.885678 4.685477 -4.618773
-12.164970 10.186528 10.349022 -0.246742 0.000000 0.969054 4.806529 4.618781
-12.164970 0.862850 10.349020 -0.246742 0.000000 0.969054 4.806529 -4.618773
3.400959 0.866506 0.767025 0.309000 -0.000427 -0.951048 -9.307650 9.237555
3.059966 0.866506 0.717900 0.142582 0.000000 -0.989776 -9.380886 9.237555
3.059966 10.190180 0.717902 0.166478 0.000885 -0.986023 -9.380886 -0.000000
3.452284 10.190180 0.784380 0.329661 0.000427 -0.944090 -9.287230 -0.000000
3.878963 0.866506 1.019417 0.627308 -0.000427 -0.778741 -9.053045 9.237555
3.878963 10.190180 1.019419 0.638691 0.000244 -0.769433 -9.053045 0.000000
4.123815 0.866506 1.309544 0.925596 0.000122 -0.378491 -8.751251 9.237555
4.119688 10.190180 1.312064 0.927671 0.000488 -0.373302 -8.749674 0.000000
4.235032 10.190180 2.809622 0.997040 0.000427 -0.076632 -7.252359 0.000000
4.237327 0.866506 2.809453 0.997131 0.000244 -0.075442 -7.252358 9.237555
4.477622 0.866506 2.843719 0.751183 0.000000 -0.660054 -7.210340 9.237555
4.341802 0.866506 2.803079 0.286660 0.000000 -0.958007 -7.255352 9.237555
4.341802 10.190180 2.803081 0.286660 0.000000 -0.958007 -7.255352 0.000000
4.477622 10.190180 2.843721 0.715934 -0.001373 -0.698141 -7.210340 0.000000
4.512755 0.866506 3.058989 0.844295 -0.000824 -0.535813 -6.994048 9.237555
4.536320 10.190179 3.058201 0.885098 0.000549 -0.465377 -6.982836 0.000000
4.673872 0.866506 3.169819 0.688345 -0.000946 -0.725333 -6.874868 9.237555
5.274287 10.190179 3.939456 0.915128 0.001709 -0.403088 -6.083255 0.000000
5.270253 0.866506 3.945657 0.921384 -0.000641 -0.388562 -6.081170 9.237555
5.356486 0.866506 4.544690 0.744682 -0.000275 -0.667379 -5.481842 9.237555
5.356486 10.190179 4.544692 0.747246 0.000000 -0.664541 -5.481842 0.000000
5.464316 0.866506 4.572455 0.794763 0.000000 -0.606891 -5.450605 9.237555
5.464316 10.190179 4.572456 0.792322 -0.001404 -0.610065 -5.450605 0.000000
5.426919 0.866505 7.156717 0.988952 0.002197 0.148167 -2.867027 9.237555
5.451941 10.190179 7.144951 0.863369 -0.001679 0.504532 -2.879855 0.000000
5.369403 10.190179 7.191808 0.835719 -0.000061 0.549120 -2.835692 0.000000
5.340514 0.866505 7.457390 0.884945 0.002441 0.465621 -2.571182 9.237555
5.340514 10.190179 7.457391 0.920988 0.000000 0.389569 -2.571182 0.000000
5.047580 0.866505 7.810869 0.572314 0.000000 0.820002 -2.227359 9.237555
5.047580 10.190179 7.810871 0.572314 0.000000 0.820002 -2.227359 0.000000
4.754645 0.866505 7.914461 0.333384 0.000000 0.942778 -2.133293 9.237555
4.754645 10.190179 7.914463 0.333384 0.000000 0.942778 -2.133293 0.000000
4.475776 0.866505 8.015729 0.868679 0.000000 0.495315 -2.041095 9.237555
4.722659 0.866505 7.850331 0.556566 0.000000 0.830775 -2.198424 9.237555
4.722659 10.190179 7.850332 0.556566 0.000000 0.830775 -2.198424 0.000000
4.475776 10.190179 8.015731 0.868679 0.000000 0.495315 -2.041095 0.000000
4.464686 0.866505 8.213866 0.767205 0.000000 0.641377 -1.843420 9.237555
4.464686 10.190179 8.213868 0.767205 0.000000 0.641377 -1.843420 0.000000
4.324260 0.866505 8.247351 0.784814 0.000000 0.619709 -1.814494 9.237555
4.324260 10.190179 8.247353 0.784814 0.000000 0.619709 -1.814494 0.000000
4.324230 0.866505 9.037396 0.998718 0.000000 0.050020 -1.024933 9.237555
4.324199 10.190178 9.041039 0.998718 0.000000 0.050386 -1.021333 0.000000
4.275840 0.866505 9.519217 0.950377 0.000000 0.311014 -0.544858 9.237555
4.275840 10.190178 9.519218 0.950285 0.000000 0.311319 -0.544858 0.000000
4.065612 0.866505 9.876030 0.769036 0.000000 0.639180 -0.195029 9.237555
4.065612 10.190178 9.876032 0.769036 0.000000 0.639180 -0.195029 -0.000000
3.702477 0.866505 10.192170 0.464278 0.000000 0.885678 0.109208 9.237555
3.702477 10.190178 10.192172 0.464278 0.000000 0.885678 0.109208 -0.000000
3.157630 0.866505 10.330920 0.246773 0.000000 0.969054 0.230260 9.237555
3.157630 10.190178 10.330922 0.246773 0.000000 0.969054 0.230260 -0.000000
-13.244710 0.862852 2.827567 0.060884 0.000000 -0.998138 -4.618773 0.093636
-13.349190 0.862852 2.821193 0.060884 0.000000 -0.998138 -4.618773 -0.011035
-13.349190 10.186530 2.821195 0.060884 0.000000 -0.998138 4.618781 -0.011035
-13.244710 10.186530 2.827569 0.060884 0.000000 -0.998138 4.618781 0.093636
-11.912530 0.862852 0.731932 -0.026307 0.000000 -0.999634 -4.618773 1.713649
-12.067360 0.862852 0.736007 -0.026307 0.000000 -0.999634 -4.618773 1.558761
-12.067360 10.186530 0.736008 -0.026307 0.000000 -0.999634 4.618781 1.558761
-11.912530 10.186530 0.731933 -0.026307 0.000000 -0.999634 4.618781 1.713649
4.754645 10.190179 7.914463 -0.894864 0.000000 0.446303 1.637425 0.000000
4.722659 10.190179 7.850332 -0.894864 0.000000 0.446303 1.709089 0.000000
4.722659 0.866505 7.850331 -0.894864 0.000000 0.446303 1.709089 9.237555
4.754645 0.866505 7.914461 -0.894864 0.000000 0.446303 1.637425 9.237555
4.237327 10.190180 2.809455 -0.060884 0.000000 -0.998138 0.000000 -0.577699
4.341802 10.190180 2.803081 -0.060884 0.000000 -0.998138 0.000000 -0.682370
4.341802 0.866506 2.803079 -0.060884 0.000000 -0.998138 9.237555 -0.682370
4.237327 0.866506 2.809453 -0.060884 0.000000 -0.998138 9.237555 -0.577699
2.905131 10.190180 0.713826 0.026307 0.000000 -0.999634 0.000000 1.442106
3.059966 10.190180 0.717902 0.026307 0.000000 -0.999634 0.000000 1.287219
3.059966 0.866506 0.717900 0.026307 0.000000 -0.999634 9.237555 1.287219
2.905131 0.866506 0.713824 0.026307 0.000000 -0.999634 9.237555 1.442106
3 0 1 2
3 3 0 2
3 4 0 3
3 5 4 3
3 6 4 5
3 7 6 5
3 8 6 7
3 9 6 8
3 10 11 12
3 13 10 12
3 14 10 13
3 15 14 13
3 16 14 15
3 17 16 15
3 18 16 17
3 19 18 17
3 20 19 17
3 21 19 20
3 22 21 20
3 23 21 22
3 24 23 22
4 25 26 27 28
3 29 23 24
3 30 23 29
3 31 30 29
3 32 30 31
3 32 31 33
3 34 32 33
3 34 33 35
3 36 37 38
3 39 36 38
3 40 36 39
3 41 40 39
3 42 40 41
3 43 42 41
3 44 42 43
3 45 44 43
3 46 44 45
3 47 46 45
3 48 46 47
3 49 48 47
3 50 48 49
3 51 50 49
3 52 50 51
3 53 52 51
3 54 55 56
3 57 54 56
3 58 54 57
3 59 58 57
3 60 58 59
3 61 60 59
3 62 60 61
3 63 60 62
3 64 65 66
3 67 64 66
3 68 64 67
3 69 68 67
3 70 68 69
3 71 70 69
3 72 70 71
3 73 72 71
3 74 73 71
3 75 73 74
3 76 75 74
3 77 75 76
3 78 77 76
3 79 77 78
3 80 77 79
3 81 80 79
3 82 80 81
3 82 81 83
3 84 82 83
3 84 83 85
3 86 87 88
3 89 86 88
3 90 86 89
3 91 90 89
3 92 90 91
3 93 92 91
3 94 92 93
3 95 94 93
3 96 94 95
3 97 96 95
3 98 96 97
3 99 98 97
3 100 98 99
3 101 100 99
3 102 100 101
3 103 102 101
4 104 105 106 107
4 108 109 110 111
4 112 113 114 115
4 116 117 118 119
4 120 121 122 123
